<?xml version="1.0" encoding="UTF-8"?><svg id="Layer_2" xmlns="http://www.w3.org/2000/svg" viewBox="0 0 1000 240.51"><defs><style>.cls-1,.cls-2,.cls-3,.cls-4{stroke-width:0px;}.cls-2{fill:#016bb2;}.cls-3,.cls-5{fill:#fff;}.cls-4{fill:#231f20;}.cls-5{font-family:Circular-Bold, Circular;font-size:25.6px;font-weight:700;}</style></defs><g id="Layer_1-2"><rect class="cls-3" width="1000" height="240.51"/><circle class="cls-2" cx="396.64" cy="168.62" r="17.79"/><path class="cls-3" d="m386.63,170.76v-3.02h7.42v3.02h-7.42Z"/><path class="cls-3" d="m399.48,176.85v-11.11h-3.99v-2.38c1.21-.02,2.21-.32,3.01-.92.79-.6,1.28-1.33,1.45-2.2h3.05v16.61h-3.51Z"/><circle class="cls-2" cx="639.69" cy="122.3" r="17.79"/><text class="cls-5" transform="translate(632.9 130.53)"><tspan x="0" y="0">2</tspan></text><circle class="cls-2" cx="639.69" cy="79.06" r="17.79"/><text class="cls-5" transform="translate(632.82 87.3)"><tspan x="0" y="0">3</tspan></text><path class="cls-4" d="m827.06,81.06c-.73,0-1.39-.52-1.52-1.27-.16-.84.4-1.65,1.25-1.81l21.64-3.99c.84-.16,1.65.4,1.81,1.25.16.84-.4,1.65-1.25,1.81l-21.64,3.99c-.09.02-.19.03-.28.03Z"/><path class="cls-4" d="m807.48,84.67c-.73,0-1.39-.52-1.52-1.27-.16-.84.4-1.65,1.25-1.81l7.83-1.44c.84-.16,1.65.4,1.81,1.25.16.84-.4,1.65-1.25,1.81l-7.83,1.44c-.09.02-.19.03-.28.03Z"/><path class="cls-4" d="m791.81,87.55c-.73,0-1.39-.52-1.52-1.27-.16-.84.4-1.65,1.25-1.81l7.83-1.44c.84-.15,1.65.4,1.81,1.25.16.84-.4,1.65-1.25,1.81l-7.83,1.44c-.09.02-.19.03-.28.03Z"/><path class="cls-4" d="m776.15,90.44c-.73,0-1.39-.52-1.52-1.27-.16-.84.4-1.65,1.25-1.81l7.83-1.44c.84-.16,1.65.4,1.81,1.25.16.84-.4,1.65-1.25,1.81l-7.83,1.44c-.09.02-.19.03-.28.03Z"/><path class="cls-4" d="m760.48,93.32c-.73,0-1.39-.52-1.52-1.27-.16-.84.4-1.65,1.25-1.81l7.83-1.44c.84-.16,1.65.4,1.81,1.25.16.84-.4,1.65-1.25,1.81l-7.83,1.44c-.09.02-.19.03-.28.03Z"/><path class="cls-4" d="m744.82,96.21c-.73,0-1.39-.52-1.52-1.27-.16-.84.4-1.65,1.25-1.81l7.83-1.44c.84-.16,1.65.4,1.81,1.25.16.84-.4,1.65-1.25,1.81l-7.83,1.44c-.09.02-.19.03-.28.03Z"/><path class="cls-4" d="m729.15,99.09c-.73,0-1.39-.52-1.52-1.27-.16-.84.4-1.65,1.25-1.81l7.83-1.44c.84-.16,1.65.4,1.81,1.25.16.84-.4,1.65-1.25,1.81l-7.83,1.44c-.09.02-.19.03-.28.03Z"/><path class="cls-4" d="m678.24,108.47c-.73,0-1.39-.52-1.52-1.27-.16-.84.4-1.65,1.25-1.81l35.24-6.49c.84-.16,1.65.4,1.81,1.25s-.4,1.65-1.25,1.81l-35.24,6.49c-.09.02-.19.03-.28.03Z"/><path class="cls-4" d="m683.75,95.31c-.57,0-1.11-.31-1.39-.85l-18.79-37.03c-.22-.44-.22-.95,0-1.39.22-.44.63-.75,1.11-.84l13.71-2.52c.55-.1,1.12.1,1.48.54.19.23,19.2,22.9,43.75,31.84.81.29,1.22,1.18.93,1.99-.29.8-1.19,1.22-1.99.93-23.19-8.45-41-28.06-44.48-32.08l-10.78,1.99,17.85,35.18c.39.76.08,1.7-.68,2.09-.23.11-.47.17-.7.17Z"/><path class="cls-4" d="m717.07,120.47c-23.3,0-39.58-12.17-39.77-12.32-2.09-1.59-6.83-5.74-5.84-9.88.64-2.66,3.41-4.46,8.25-5.35l140.93-25.96c11.79-2.17,17.34.94,22.24,3.68,1.27.71,2.46,1.38,3.72,1.93,1.01.44,2.93,1.27,5.19,2.24,3.33,1.43,5.53,4.57,5.75,8.19.21,3.61-1.6,6.98-4.73,8.79l-4.74,2.75c-4.9,2.84-10.21,4.8-15.79,5.83l-26.66,4.91c-.84.15-1.65-.4-1.81-1.25s.4-1.65,1.25-1.81l26.66-4.91c5.22-.96,10.2-2.8,14.79-5.46l4.74-2.75c2.14-1.24,3.33-3.45,3.18-5.92-.15-2.48-1.6-4.54-3.87-5.52-2.27-.97-4.19-1.81-5.2-2.24-1.4-.61-2.72-1.35-4-2.06-4.66-2.61-9.48-5.31-20.16-3.34l-140.93,25.96c-3.42.63-5.48,1.7-5.8,3.02-.38,1.57,1.52,4.26,4.7,6.69.21.16,21.17,15.83,49.38,10.63l21.4-3.94c.84-.15,1.65.4,1.81,1.25.16.84-.4,1.65-1.25,1.81l-21.4,3.94c-4.18.77-8.21,1.1-12.05,1.1Z"/><path class="cls-4" d="m753.05,122.97c-1.72,0-3.34-.8-4.41-2.21-1.27-1.68-1.47-3.9-.54-5.79,3.55-7.13,10.34-12.25,18.18-13.7l26.07-4.8c4.81-.89,9.57.81,12.74,4.55,2.39,2.8,3.29,6.19,2.35,8.84-.78,2.2-2.75,3.7-5.53,4.21l-47.85,8.81c-.34.06-.68.09-1.02.09Zm.45-3.15l.28,1.53-.28-1.53,47.85-8.81c1.69-.31,2.76-1.05,3.17-2.2.56-1.58-.14-3.85-1.79-5.78-2.45-2.88-6.12-4.19-9.82-3.51l-26.07,4.8c-6.88,1.27-12.84,5.76-15.96,12.03-.42.84-.33,1.79.23,2.54.57.75,1.45,1.1,2.38.93Z"/><path class="cls-4" d="m342.72,163.24h22.76s0-3,0-3h-22.76c-1.85,0-3.36-1.51-3.36-3.36,0-1.85,1.51-3.36,3.36-3.36h17.95s0-3,0-3h-17.95c-3.51,0-6.36,2.85-6.36,6.36s2.85,6.36,6.36,6.36Z"/><path class="cls-4" d="m313.85,175.23h20.98c3.31,0,5.99,2.68,5.99,5.99s-2.68,5.99-5.99,5.99c-2.22,0-4.15-1.21-5.19-3h-10.61c-1.04,1.79-2.97,3-5.19,3-3.31,0-5.99-2.68-5.99-5.99s2.68-5.99,5.99-5.99Z"/><rect class="cls-4" x="262.45" y="154.25" width="14.99" height="8.99" rx="3" ry="3"/><rect class="cls-4" x="283.43" y="154.25" width="14.99" height="8.99" rx="3" ry="3"/><rect class="cls-4" x="304.41" y="154.25" width="14.99" height="8.99" rx="3" ry="3"/><path class="cls-4" d="m167.91,175.23h20.98c3.31,0,5.99,2.68,5.99,5.99s-2.68,5.99-5.99,5.99c-2.22,0-4.15-1.21-5.19-3h-10.61c-1.04,1.79-2.97,3-5.19,3-3.31,0-5.99-2.68-5.99-5.99s2.68-5.99,5.99-5.99Z"/><rect class="cls-4" x="155.15" y="154.25" width="14.99" height="8.99" rx="3" ry="3"/><rect class="cls-4" x="176.13" y="154.25" width="14.99" height="8.99" rx="3" ry="3"/><rect class="cls-4" x="197.11" y="154.25" width="14.99" height="8.99" rx="3" ry="3"/><rect class="cls-4" x="218.09" y="154.25" width="14.99" height="8.99" rx="3" ry="3"/><polygon class="cls-4" points="275.58 143.46 289.39 133.1 266.43 119.98 264.95 122.58 283.95 133.44 273.78 141.06 275.58 143.46"/><path class="cls-4" d="m250.56,182.72v-3h55.94c.7-3.42,3.72-5.99,7.34-5.99h20.98c3.62,0,6.65,2.58,7.34,5.99h23.35c1.19,0,2.3-.48,3.11-1.35,1.39-1.49.72-3.37-.48-6.32l-.1-.24c-5.24-12.9-8.21-19.81-13.18-23.56-5.07-3.82-12.5-4.49-26.22-4.49h-78.1v-3h78.1c14.4,0,22.27.76,28.02,5.1,5.6,4.22,8.71,11.42,14.15,24.82l.1.24c1.18,2.91,2.66,6.53-.1,9.49-1.37,1.47-3.3,2.31-5.31,2.31h-26.2v-1.5c0-2.48-2.02-4.5-4.5-4.5h-20.98c-2.48,0-4.5,2.02-4.5,4.5v1.5h-58.79Z"/><rect class="cls-4" x="250.56" y="140.76" width="3.08" height="41.96" transform="translate(504.21 323.48) rotate(-180)"/><rect class="cls-4" x="242.71" y="140.76" width="3.08" height="41.96" transform="translate(488.49 323.48) rotate(-180)"/><path class="cls-4" d="m245.78,140.76v3h-100.35s0,35.96,0,35.96h15.14c.7-3.42,3.72-5.99,7.34-5.99h20.98c3.62,0,6.65,2.58,7.34,5.99h49.55v3h-52.4v-1.5c0-2.48-2.02-4.5-4.5-4.5h-20.98c-2.48,0-4.5,2.02-4.5,4.5v1.5h-20.98v-41.96h103.35Z"/><path class="cls-1" d="m479.83,113.14c.65.57,1.35,1.08,2.1,1.51,6.02,3.45,13.72,1.36,17.17-4.65,3.45-6.02,1.36-13.72-4.65-17.17-6.02-3.45-13.72-1.36-17.17,4.65-.94,1.64-1.5,3.47-1.63,5.34-2.77-.56-5.63.68-7.08,3.22-1.83,3.19-.72,7.27,2.46,9.1s6.85.83,8.8-1.99Zm-9.84-6.28c1.24-2.16,3.82-3.08,6.15-2.18.25.1.54.06.77-.09.22-.16.36-.41.35-.69-.03-1.96.47-3.89,1.45-5.59,3-5.23,9.7-7.04,14.93-4.04s7.04,9.7,4.04,14.93c-3,5.23-9.7,7.04-14.93,4.04-.93-.53-1.78-1.2-2.51-1.98-.19-.2-.46-.29-.73-.25-.25.04-.46.19-.58.4-.01.02-.02.04-.03.06-.06.13-.12.26-.19.38-1.38,2.4-4.45,3.23-6.85,1.86-2.4-1.38-3.23-4.45-1.86-6.85Z"/><path class="cls-4" d="m488.17,116.9c-2.22,0-4.47-.56-6.53-1.74-.6-.35-1.18-.74-1.72-1.18-2.22,2.67-6.12,3.41-9.18,1.66-1.68-.96-2.88-2.52-3.39-4.39-.51-1.87-.26-3.82.71-5.5,1.45-2.52,4.22-3.92,7.07-3.6.21-1.74.78-3.44,1.65-4.96,1.75-3.04,4.58-5.23,7.98-6.15,3.39-.92,6.94-.47,9.99,1.28,3.04,1.75,5.23,4.58,6.15,7.98.92,3.4.47,6.94-1.28,9.99-2.43,4.24-6.87,6.61-11.44,6.61Zm-8.44-4.63l.49.44c.61.55,1.29,1.03,2,1.44,2.77,1.59,6.01,2.01,9.11,1.17,3.1-.84,5.68-2.83,7.27-5.6,1.59-2.77,2.01-6.01,1.17-9.1-.84-3.1-2.83-5.68-5.6-7.27-2.78-1.59-6.01-2.01-9.11-1.17-3.1.84-5.68,2.83-7.27,5.6-.89,1.55-1.43,3.31-1.56,5.09l-.05.66-.65-.13c-2.55-.52-5.15.66-6.46,2.94-1.67,2.91-.66,6.63,2.25,8.3,2.72,1.56,6.25.76,8.03-1.82l.37-.54Zm8.45,2.99c-1.94,0-3.91-.49-5.71-1.52-.98-.56-1.87-1.26-2.65-2.08-.05-.06-.13-.08-.21-.07-.07.01-.13.05-.17.12-.08.16-.15.31-.23.45-1.54,2.68-4.97,3.61-7.65,2.07-1.3-.74-2.23-1.95-2.62-3.4-.39-1.45-.2-2.96.55-4.25h0c1.38-2.41,4.27-3.43,6.86-2.44.07.03.16.02.22-.03.06-.04.1-.12.1-.2-.03-2.06.5-4.1,1.53-5.89,3.16-5.51,10.21-7.42,15.72-4.26,2.66,1.53,4.58,4.01,5.38,6.98.8,2.97.41,6.08-1.12,8.74-2.13,3.71-6.02,5.78-10.01,5.78Zm-8.53-4.85c.38,0,.75.16,1.02.44.7.74,1.5,1.37,2.38,1.87,4.95,2.84,11.29,1.12,14.13-3.83,1.37-2.4,1.73-5.19,1.01-7.86-.72-2.67-2.44-4.9-4.84-6.28-4.95-2.84-11.29-1.12-14.13,3.83-.92,1.61-1.4,3.44-1.37,5.3,0,.47-.22.9-.6,1.17-.38.27-.87.33-1.31.16-2.06-.79-4.34.02-5.44,1.93h0c-1.22,2.12-.48,4.84,1.64,6.06,2.12,1.22,4.84.48,6.06-1.64.06-.11.12-.23.17-.34l.05-.1c.22-.38.58-.63,1-.69.08-.01.15-.02.23-.02Z"/><path class="cls-1" d="m499.5,127.84c-.42.16-.9-.05-1.06-.48-1.69-4.46-6.04-7.46-10.82-7.46-3.09,0-6,1.2-8.18,3.39-2.19,2.19-3.39,5.09-3.39,8.18v19.58c0,.45-.37.82-.82.82s-.82-.37-.82-.82v-19.58c0-3.53,1.38-6.85,3.87-9.35,2.5-2.5,5.82-3.87,9.35-3.87,5.46,0,10.42,3.43,12.36,8.52.16.42-.05.9-.48,1.06Z"/><path class="cls-4" d="m475.23,152.45c-.77,0-1.4-.63-1.4-1.4v-19.58c0-3.69,1.44-7.15,4.04-9.76,2.61-2.61,6.07-4.04,9.76-4.04,5.7,0,10.88,3.58,12.9,8.9.27.72-.09,1.54-.82,1.81-.35.13-.73.12-1.07-.03s-.6-.43-.74-.78c-1.61-4.24-5.73-7.09-10.27-7.09-2.94,0-5.7,1.14-7.77,3.22-2.08,2.08-3.22,4.84-3.22,7.77v19.58c0,.77-.63,1.4-1.4,1.4Zm12.4-33.62c-3.37,0-6.55,1.31-8.93,3.7-2.39,2.39-3.7,5.56-3.7,8.93v19.58c0,.13.11.24.24.24s.24-.11.24-.24v-19.58c0-3.25,1.26-6.3,3.56-8.6,2.3-2.3,5.35-3.56,8.6-3.56,5.02,0,9.59,3.15,11.36,7.84.03.08.09.12.13.13.03.02.1.04.18,0,.12-.05.19-.19.14-.31-1.85-4.87-6.59-8.15-11.81-8.15Z"/><path class="cls-1" d="m516.43,94.66c5.27,0,9.56-4.29,9.56-9.57s-4.29-9.56-9.56-9.56c-5.27,0-9.57,4.29-9.57,9.56,0,5.27,4.29,9.57,9.57,9.57Zm0-17.49c4.37,0,7.92,3.55,7.92,7.92s-3.55,7.92-7.92,7.92c-4.37,0-7.92-3.55-7.92-7.92,0-4.37,3.55-7.92,7.92-7.92Z"/><path class="cls-4" d="m516.43,95.24c-5.6,0-10.15-4.55-10.15-10.15s4.55-10.15,10.15-10.15,10.15,4.55,10.15,10.15-4.55,10.15-10.15,10.15Zm0-19.13c-4.95,0-8.98,4.03-8.98,8.98s4.03,8.98,8.98,8.98,8.98-4.03,8.98-8.98-4.03-8.98-8.98-8.98Zm0,17.49c-4.69,0-8.5-3.81-8.5-8.5s3.81-8.5,8.5-8.5,8.5,3.81,8.5,8.5-3.82,8.5-8.5,8.5Zm0-15.84c-4.05,0-7.34,3.29-7.34,7.34s3.29,7.34,7.34,7.34,7.34-3.29,7.34-7.34-3.29-7.34-7.34-7.34Z"/><path class="cls-1" d="m507.67,120.15c-.45,0-.82-.37-.82-.82v-13.5c0-2.69,1.05-5.21,2.94-7.1,1.9-1.9,4.42-2.94,7.1-2.94,3.82,0,7.37,2.22,9.04,5.66.2.41.03.9-.38,1.1-.41.2-.9.03-1.1-.38-1.42-2.92-4.32-4.73-7.56-4.73-2.24,0-4.35.87-5.94,2.46-1.59,1.58-2.46,3.69-2.46,5.94v13.5c0,.45-.37.82-.82.82Z"/><path class="cls-4" d="m507.67,120.73c-.77,0-1.4-.63-1.4-1.4v-13.5c0-2.84,1.11-5.51,3.11-7.51,2.01-2,4.67-3.11,7.51-3.11,4.04,0,7.79,2.35,9.56,5.99.16.34.19.72.06,1.07-.12.35-.38.64-.71.8-.69.34-1.54.05-1.87-.65-1.32-2.72-4.02-4.41-7.04-4.41-2.09,0-4.05.81-5.53,2.29-1.48,1.47-2.29,3.44-2.29,5.53v13.5c0,.77-.63,1.4-1.4,1.4Zm9.22-24.36c-2.53,0-4.9.98-6.69,2.77-1.79,1.78-2.77,4.16-2.77,6.69v13.5c0,.13.11.24.24.24s.24-.11.24-.24v-13.5c0-2.4.93-4.66,2.63-6.35,1.69-1.69,3.95-2.63,6.35-2.63,3.47,0,6.56,1.94,8.08,5.06.06.12.2.17.32.11.08-.04.11-.1.12-.14.01-.04.03-.11-.01-.18-1.57-3.24-4.92-5.33-8.51-5.33Z"/><path class="cls-2" d="m534.06,124.37l-16,2.27c-.45.06-.83.38-.97.81-.14.43-.03.91.29,1.23l3.85,3.85-11.25,11.25c-.47.47-.47,1.23,0,1.7l4.34,4.34c.47.47,1.23.47,1.7,0l11.25-11.25,3.85,3.85c.32.32.8.43,1.23.29.18-.06.34-.16.47-.29.18-.18.3-.42.34-.68l2.27-16c.05-.37-.07-.75-.34-1.02s-.64-.39-1.02-.34Z"/><path class="cls-1" d="m422.07,168.61c0,10.46,8.51,18.96,18.96,18.96h50.27c5.06,0,9.83-1.97,13.41-5.55l28.73-28.73h0s31.11-31.11,31.11-31.11h34.37c10.46,0,18.96-8.51,18.96-18.96s-8.51-18.96-18.96-18.96h-42.23c-5.06,0-9.83,1.97-13.41,5.55l-36.66,36.66h0s-23.18,23.18-23.18,23.18h-42.42c-10.46,0-18.96,8.51-18.96,18.96Zm2.4,0c0-9.13,7.43-16.56,16.56-16.56h42.91c.32,0,.62-.13.85-.35l23.53-23.53h0s36.66-36.66,36.66-36.66c3.13-3.13,7.29-4.85,11.71-4.85h42.23c9.13,0,16.56,7.43,16.56,16.56,0,9.13-7.43,16.56-16.56,16.56h-34.87c-.32,0-.62.13-.85.35l-31.46,31.46h0s-28.73,28.73-28.73,28.73c-3.13,3.13-7.29,4.85-11.71,4.85h-50.27c-9.13,0-16.56-7.43-16.56-16.56Z"/><path class="cls-4" d="m491.3,187.86h-50.27c-10.62,0-19.25-8.64-19.25-19.25s8.64-19.25,19.25-19.25h42.3l59.75-59.75c3.64-3.64,8.47-5.64,13.61-5.64h42.23c10.62,0,19.25,8.64,19.25,19.25s-8.64,19.25-19.25,19.25h-34.25l-59.75,59.75c-3.64,3.64-8.47,5.64-13.61,5.64Zm-50.27-37.92c-10.29,0-18.67,8.38-18.67,18.67s8.38,18.67,18.67,18.67h50.27c4.99,0,9.68-1.94,13.2-5.47l59.92-59.92h34.49c10.29,0,18.67-8.38,18.67-18.67s-8.38-18.67-18.67-18.67h-42.23c-4.99,0-9.67,1.94-13.2,5.47l-59.92,59.92h-42.54Zm50.27,35.52h-50.27c-9.29,0-16.85-7.56-16.85-16.85s7.56-16.85,16.85-16.85h42.91c.24,0,.47-.1.64-.27l60.19-60.19c3.18-3.18,7.42-4.94,11.92-4.94h42.23c9.29,0,16.85,7.56,16.85,16.85s-7.56,16.85-16.85,16.85h-34.87c-.24,0-.47.1-.64.27l-60.19,60.19c-3.18,3.18-7.42,4.94-11.92,4.94Zm-50.27-33.12c-8.97,0-16.27,7.3-16.27,16.27s7.3,16.27,16.27,16.27h50.27c4.35,0,8.43-1.69,11.51-4.77l60.19-60.19c.28-.28.66-.44,1.05-.44h34.87c8.97,0,16.27-7.3,16.27-16.27s-7.3-16.27-16.27-16.27h-42.23c-4.35,0-8.43,1.69-11.51,4.77l-60.19,60.19c-.28.28-.66.44-1.06.44h-42.91Z"/></g></svg>