<?xml version="1.0" encoding="UTF-8"?><svg id="Layer_2" xmlns="http://www.w3.org/2000/svg" viewBox="0 0 491.74 256.25"><defs><style>.cls-1{fill:#90d2c7;}.cls-1,.cls-2,.cls-3,.cls-4,.cls-5,.cls-6,.cls-7{stroke-width:0px;}.cls-3{fill:#caa8ca;}.cls-4{fill:#fff;}.cls-5{fill:#231f20;}.cls-6{fill:#6b8ed1;}.cls-7{fill:#bfd68d;}</style></defs><g id="Layer_1-2"><rect class="cls-4" x="0" y="0" width="491.74" height="256.25"/><path class="cls-2" d="m219.8,119.59c-.38,0-.73-.14-1.01-.39l-3.7-3.36c-.31-.28-.49-.68-.49-1.11,0-.37.13-.73.38-1,.54-.59,1.54-.64,2.12-.11l3.71,3.36c.31.28.49.69.49,1.11,0,.37-.14.73-.39,1.01-.28.31-.69.49-1.11.49Zm-7.41-6.72c-.37,0-.73-.13-1.01-.39l-3.7-3.35c-.31-.29-.49-.69-.49-1.11,0-.38.14-.74.39-1.01.53-.59,1.53-.64,2.11-.11l3.71,3.36c.31.29.49.69.49,1.11,0,.38-.14.74-.39,1.01-.28.31-.69.49-1.11.49Zm-7.41-6.72c-.37,0-.73-.13-1-.38l-3.7-3.36c-.32-.29-.5-.69-.5-1.11,0-.38.14-.74.39-1.01.54-.59,1.53-.64,2.12-.1l3.7,3.35c.32.29.49.69.49,1.12,0,.37-.13.73-.38,1-.29.32-.69.49-1.12.49Zm-7.4-6.71c-.38,0-.73-.14-1.01-.39l-3.7-3.36c-.32-.28-.5-.69-.5-1.11,0-.37.14-.73.39-1.01.54-.59,1.53-.64,2.12-.1l3.71,3.36c.31.28.49.68.49,1.11,0,.37-.14.73-.39,1-.29.32-.69.5-1.11.5Zm-7.41-6.72c-.37,0-.73-.14-1.01-.39l-3.7-3.36c-.31-.28-.49-.69-.49-1.11,0-.37.14-.73.39-1.01.53-.59,1.53-.64,2.11-.1l3.71,3.36c.31.28.49.69.49,1.11,0,.37-.14.73-.39,1.01-.28.31-.69.49-1.11.49Zm-7.41-6.72c-.37,0-.73-.14-1-.39l-3.71-3.36c-.31-.28-.49-.69-.49-1.11,0-.37.14-.73.39-1.01.53-.58,1.53-.63,2.12-.1l3.7,3.36c.31.28.49.69.49,1.11,0,.37-.13.73-.38,1.01-.29.31-.69.49-1.12.49Zm-7.4-6.72c-.38,0-.73-.14-1.01-.39l-3.7-3.36c-.32-.28-.5-.68-.5-1.11,0-.37.14-.73.39-1.01.54-.58,1.53-.63,2.12-.1l3.7,3.36c.32.28.5.69.5,1.11,0,.38-.14.73-.39,1.01-.29.31-.69.49-1.11.49Zm-7.41-6.72c-.37,0-.73-.14-1.01-.39l-3.7-3.36c-.31-.28-.49-.68-.49-1.11,0-.37.13-.73.39-1,.53-.59,1.53-.64,2.11-.11l3.71,3.36c.31.29.49.69.49,1.11,0,.38-.14.74-.39,1.01-.28.31-.69.49-1.11.49Zm-7.41-6.71c-.37,0-.73-.14-1-.39l-3.71-3.36c-.31-.29-.49-.69-.49-1.11,0-.38.14-.73.39-1.01.53-.59,1.53-.64,2.12-.1l3.7,3.36c.31.28.49.68.49,1.11,0,.37-.13.73-.39,1-.28.32-.68.5-1.11.5Zm-7.4-6.72c-.38,0-.74-.14-1.01-.39l-3.71-3.36c-.31-.28-.49-.69-.49-1.11,0-.38.14-.73.39-1.01.54-.59,1.53-.64,2.12-.1l3.7,3.36c.32.28.5.69.5,1.11,0,.37-.14.73-.39,1.01-.29.31-.69.49-1.11.49Zm-7.41-6.72c-.38,0-.73-.14-1.01-.39l-3.7-3.36c-.61-.56-.66-1.51-.11-2.12.54-.59,1.54-.64,2.12-.1l3.71,3.36c.31.28.49.69.49,1.11,0,.37-.14.73-.39,1.01-.28.31-.69.49-1.11.49Z"/><path class="cls-2" d="m223.53,123.42c-.48,0-.93-.22-1.21-.61-.24-.32-.34-.71-.27-1.11.06-.4.27-.75.59-.98l4.03-2.97c.64-.47,1.62-.32,2.1.32.19.27.29.58.28.9,0,.48-.22.92-.61,1.2l-4.02,2.96c-.26.19-.57.29-.89.29Zm8.05-5.92c-.47,0-.93-.23-1.21-.61-.19-.26-.29-.58-.29-.9,0-.48.23-.92.62-1.2l4.02-2.96c.65-.48,1.63-.32,2.1.32.19.26.29.57.29.9,0,.47-.23.92-.61,1.2l-4.03,2.96c-.26.19-.57.29-.89.29Zm8.06-5.93c-.47,0-.93-.22-1.21-.61-.19-.26-.29-.57-.29-.9,0-.47.23-.92.61-1.19l4.03-2.97c.64-.47,1.62-.32,2.09.33.2.26.3.57.3.89,0,.48-.23.92-.61,1.2l-4.03,2.96c-.26.19-.57.29-.89.29Zm8.06-5.92c-.48,0-.93-.23-1.21-.61-.2-.26-.3-.58-.29-.9,0-.47.23-.92.61-1.2l4.03-2.96c.64-.47,1.62-.32,2.09.32.2.26.3.57.29.9,0,.48-.22.91-.61,1.2l-4.03,2.96c-.25.19-.56.29-.88.29Zm8.05-5.92c-.47,0-.93-.23-1.21-.61-.19-.27-.29-.58-.29-.9,0-.48.23-.92.61-1.2l4.03-2.97c.64-.47,1.63-.32,2.1.33.19.26.29.57.29.89,0,.48-.23.92-.61,1.2l-4.03,2.96c-.26.2-.57.3-.89.3Zm8.06-5.93c-.48,0-.93-.23-1.21-.61-.19-.26-.29-.57-.29-.9,0-.47.23-.92.61-1.2l4.03-2.96c.64-.47,1.62-.32,2.1.32.19.26.29.57.28.9,0,.47-.23.92-.61,1.2l-4.02,2.96c-.26.19-.57.29-.89.29Zm8.05-5.92c-.47,0-.92-.23-1.21-.62-.19-.26-.29-.57-.29-.9.01-.46.24-.91.62-1.19l4.02-2.96c.64-.48,1.63-.33,2.1.32.19.26.29.57.29.9,0,.47-.23.91-.61,1.19l-4.03,2.96c-.26.2-.56.3-.89.3Zm8.06-5.93c-.48,0-.93-.23-1.21-.61-.19-.26-.29-.57-.29-.9,0-.48.23-.91.61-1.2l4.03-2.96c.64-.47,1.63-.32,2.09.32.2.26.3.57.3.9,0,.48-.23.92-.61,1.2l-4.03,2.96c-.26.19-.57.29-.89.29Zm8.06-5.92c-.48,0-.93-.23-1.21-.61-.2-.27-.3-.58-.29-.9,0-.47.23-.92.61-1.2l4.03-2.96c.64-.48,1.62-.32,2.09.32.2.26.3.57.29.9,0,.47-.22.91-.61,1.19l-4.03,2.96c-.25.2-.56.3-.88.3Zm8.05-5.93c-.47,0-.92-.23-1.21-.61-.19-.26-.29-.57-.29-.9.01-.47.23-.92.61-1.2l4.03-2.96c.65-.47,1.63-.32,2.1.32.19.26.29.57.29.9,0,.48-.23.92-.61,1.2l-4.03,2.96c-.26.19-.56.29-.89.29Zm8.06-5.92c-.48,0-.93-.23-1.21-.61-.19-.27-.29-.58-.29-.9,0-.47.23-.92.61-1.2l4.03-2.96c.64-.48,1.62-.32,2.1.32.19.26.29.57.28.9,0,.47-.22.91-.61,1.19l-4.02,2.97c-.26.19-.57.29-.89.29Zm8.06-5.93c-.48,0-.93-.23-1.21-.61-.2-.26-.3-.57-.3-.9,0-.47.24-.92.62-1.2l4.02-2.96c.64-.47,1.63-.32,2.1.32.19.27.29.58.29.9,0,.47-.23.92-.61,1.2l-4.03,2.96c-.26.19-.56.29-.88.29Zm8.05-5.92c-.47,0-.93-.23-1.21-.61-.19-.26-.29-.58-.29-.9,0-.48.23-.92.61-1.2l.48-.35c.64-.47,1.62-.32,2.09.32.49.67.35,1.61-.32,2.1l-.47.35c-.26.19-.57.29-.89.29Z"/><path class="cls-2" d="m223.22,215.71c-.82,0-1.49-.67-1.5-1.49l-.02-4.77c0-.83.67-1.5,1.49-1.5s1.51.67,1.51,1.49l.02,4.76c0,.4-.15.78-.43,1.07-.28.28-.66.44-1.06.44h0Zm-.04-9.76c-.82,0-1.5-.67-1.5-1.5l-.02-5c-.01-.4.15-.78.43-1.06.28-.29.66-.44,1.06-.44.83,0,1.5.67,1.51,1.49l.02,5c0,.82-.67,1.5-1.49,1.51h0Zm-.04-10.01h0c-.82,0-1.49-.66-1.5-1.49l-.02-5c0-.4.15-.77.43-1.06.29-.28.66-.44,1.07-.44.83,0,1.5.67,1.5,1.49l.03,5c0,.83-.67,1.5-1.5,1.5Zm-.05-9.99c-.82,0-1.5-.68-1.5-1.5l-.02-5c0-.4.15-.78.43-1.06.28-.29.66-.44,1.06-.44.83,0,1.51.67,1.51,1.49l.02,5c0,.83-.67,1.5-1.49,1.51h0Zm-.04-10.01h0c-.82,0-1.49-.67-1.49-1.49l-.03-5c0-.4.15-.78.43-1.06.29-.28.66-.44,1.07-.44.83,0,1.5.67,1.5,1.49l.02,5c0,.4-.15.78-.43,1.06-.28.29-.66.44-1.06.44Zm-.05-10c-.82,0-1.5-.66-1.5-1.49l-.02-5c0-.4.15-.78.43-1.06.28-.29.66-.44,1.06-.45.83,0,1.5.68,1.51,1.5l.02,5c0,.4-.15.78-.44,1.06-.28.29-.65.44-1.05.44h0Zm-.04-9.99c-.83,0-1.5-.67-1.5-1.5l-.03-5c0-.4.15-.78.44-1.06.28-.29.66-.44,1.06-.44.83,0,1.5.66,1.5,1.49l.02,5c.01.4-.15.78-.43,1.06-.28.29-.66.44-1.06.45h0Zm-.04-10.01h0c-.83,0-1.5-.66-1.5-1.49l-.02-5c0-.4.15-.77.43-1.06.28-.28.66-.44,1.06-.44.83,0,1.5.67,1.51,1.49l.02,5c0,.4-.15.78-.43,1.06s-.66.44-1.06.44Zm-.05-9.99h0c-.83,0-1.5-.67-1.51-1.5l-.02-5c0-.82.67-1.5,1.49-1.5s1.51.67,1.51,1.49l.02,5c.01.4-.15.78-.43,1.06-.28.29-.66.44-1.06.45Z"/><path class="cls-2" d="m223.26,104.27c4.45,0,8.47,1.8,11.38,4.72,2.91,2.91,4.72,6.94,4.72,11.38s-1.8,8.47-4.72,11.38c-2.91,2.91-6.94,4.72-11.38,4.72s-8.47-1.8-11.38-4.72c-2.91-2.91-4.72-6.94-4.72-11.38s1.8-8.47,4.72-11.38c2.91-2.91,6.94-4.72,11.38-4.72h0Z"/><path class="cls-4" d="m216.58,127.16c-.23-.23-.26-.63.63-1.86l-3.2-1.69c-.73-.32.36-1.23,1.04-1.05l3.7.83,4.24-4.84c-2.78-1.38-5.57-2.76-8.35-4.15-.68-.39.5-1.62,1.42-1.37l10.58,1.61,2.68-2.89c.71-.75,2.26-1.48,3.2-.54.94.94.21,2.49-.54,3.2l-2.89,2.68,1.61,10.58c.25.93-.98,2.1-1.37,1.42-1.38-2.78-2.76-5.57-4.15-8.35l-4.84,4.24.83,3.7c.18.68-.73,1.76-1.05,1.04l-1.69-3.2c-1.24.89-1.63.86-1.86.63h0Z"/><path class="cls-2" d="m248.15,116.2c.45,0,.86.06,1.22.19.36.13.66.3.9.52.24.22.43.48.56.78.13.3.2.63.2.98,0,.48-.13.9-.39,1.26-.26.36-.58.6-.96.72.21.05.41.14.61.25s.37.27.53.45c.16.18.28.4.37.64s.14.52.14.81c0,.38-.07.73-.21,1.05-.14.32-.33.59-.59.83-.25.23-.56.42-.91.55-.36.13-.75.2-1.18.2h-3.72v-9.23h3.45Zm-.33,3.7c.36,0,.65-.09.87-.27.21-.18.32-.42.32-.74s-.1-.54-.3-.72c-.2-.18-.5-.27-.91-.27h-1.09v1.99h1.12Zm.17,3.85c.4,0,.71-.1.94-.29s.34-.46.34-.79-.11-.58-.33-.78c-.22-.2-.54-.3-.94-.3h-1.29v2.16h1.29Z"/><path class="cls-2" d="m255.51,122h-.73v3.44h-2.06v-9.23h3.66c.45,0,.86.07,1.23.22.37.15.68.35.94.61.26.26.46.57.61.92.14.35.21.73.21,1.14,0,.62-.16,1.17-.48,1.62-.32.46-.77.78-1.34.98l1.88,3.74h-2.27l-1.65-3.44Zm.48-1.77c.42,0,.75-.1.97-.31.22-.21.33-.48.33-.81,0-.35-.11-.62-.33-.82-.22-.2-.54-.3-.97-.3h-1.21v2.24h1.21Z"/><path class="cls-2" d="m264.49,125.64c-.51,0-.99-.08-1.43-.23s-.83-.38-1.16-.68c-.33-.3-.59-.67-.78-1.11-.19-.44-.29-.95-.29-1.53v-5.9h2.06v5.73c0,.56.14.99.43,1.26.29.28.68.42,1.17.42s.88-.14,1.17-.42c.29-.28.43-.7.43-1.26v-5.73h2.06v5.9c0,.58-.1,1.09-.29,1.53-.19.44-.45.81-.78,1.11-.33.3-.72.53-1.17.68-.45.15-.92.23-1.42.23Z"/><path class="cls-2" d="m274.57,118.99c-.02-.1-.05-.22-.11-.36-.06-.13-.14-.26-.26-.38s-.27-.22-.46-.3c-.19-.08-.43-.12-.7-.12-.38,0-.69.1-.92.31-.23.2-.34.43-.34.68,0,.23.07.41.21.57.14.15.38.26.7.32l1.24.23c.44.08.83.21,1.16.38.33.18.61.39.83.63s.4.51.51.81c.11.3.17.61.17.94,0,.36-.07.72-.22,1.07s-.37.66-.66.93c-.29.27-.65.5-1.07.66-.43.17-.91.25-1.46.25-.64,0-1.19-.09-1.65-.28-.46-.19-.84-.42-1.15-.71s-.53-.6-.69-.95c-.16-.35-.25-.69-.29-1.02l1.89-.46c.02.21.07.41.15.61.08.2.2.36.36.51s.35.26.58.34c.23.09.51.13.82.13.41,0,.73-.09.96-.27.23-.18.34-.41.34-.7,0-.23-.09-.43-.27-.59-.18-.16-.42-.27-.72-.33l-1.26-.23c-.79-.15-1.41-.46-1.85-.95-.44-.49-.66-1.07-.66-1.76,0-.43.09-.83.27-1.2.18-.36.42-.68.72-.94.3-.26.66-.46,1.05-.61s.82-.22,1.26-.22c.57,0,1.06.08,1.47.23.41.16.74.35,1.01.59.26.24.47.5.61.79s.23.57.29.84l-1.85.52Z"/><path class="cls-2" d="m282.5,118.99c-.02-.1-.05-.22-.11-.36-.06-.13-.14-.26-.26-.38s-.27-.22-.46-.3c-.19-.08-.43-.12-.7-.12-.38,0-.69.1-.92.31-.23.2-.34.43-.34.68,0,.23.07.41.21.57.14.15.38.26.7.32l1.24.23c.44.08.83.21,1.16.38.33.18.61.39.83.63s.4.51.51.81c.11.3.17.61.17.94,0,.36-.07.72-.22,1.07s-.37.66-.66.93c-.29.27-.65.5-1.07.66-.43.17-.91.25-1.46.25-.64,0-1.19-.09-1.65-.28-.46-.19-.84-.42-1.15-.71s-.53-.6-.69-.95c-.16-.35-.25-.69-.29-1.02l1.89-.46c.02.21.07.41.15.61.08.2.2.36.36.51s.35.26.58.34c.23.09.51.13.82.13.41,0,.73-.09.96-.27.23-.18.34-.41.34-.7,0-.23-.09-.43-.27-.59-.18-.16-.42-.27-.72-.33l-1.26-.23c-.79-.15-1.41-.46-1.85-.95-.44-.49-.66-1.07-.66-1.76,0-.43.09-.83.27-1.2.18-.36.42-.68.72-.94.3-.26.66-.46,1.05-.61s.82-.22,1.26-.22c.57,0,1.06.08,1.47.23.41.16.74.35,1.01.59.26.24.47.5.61.79s.23.57.29.84l-1.85.52Z"/><path class="cls-2" d="m285.93,125.43v-9.23h5.84v1.94h-3.79v1.76h3.44v1.81h-3.44v1.77h3.8v1.95h-5.86Z"/><path class="cls-2" d="m293.52,125.43v-9.23h2.06v7.26h3.98v1.97h-6.04Z"/><path class="cls-2" d="m305.46,118.99c-.02-.1-.05-.22-.11-.36-.06-.13-.14-.26-.26-.38s-.27-.22-.46-.3c-.19-.08-.43-.12-.7-.12-.38,0-.69.1-.92.31-.23.2-.34.43-.34.68,0,.23.07.41.21.57.14.15.38.26.7.32l1.24.23c.44.08.83.21,1.16.38.33.18.61.39.83.63s.4.51.51.81c.11.3.17.61.17.94,0,.36-.07.72-.22,1.07s-.37.66-.66.93c-.29.27-.65.5-1.07.66-.43.17-.91.25-1.46.25-.64,0-1.19-.09-1.65-.28-.46-.19-.84-.42-1.15-.71s-.53-.6-.69-.95c-.16-.35-.25-.69-.29-1.02l1.89-.46c.02.21.07.41.15.61.08.2.2.36.36.51s.35.26.58.34c.23.09.51.13.82.13.41,0,.73-.09.96-.27.23-.18.34-.41.34-.7,0-.23-.09-.43-.27-.59-.18-.16-.42-.27-.72-.33l-1.26-.23c-.79-.15-1.41-.46-1.85-.95-.44-.49-.66-1.07-.66-1.76,0-.43.09-.83.27-1.2.18-.36.42-.68.72-.94.3-.26.66-.46,1.05-.61s.82-.22,1.26-.22c.57,0,1.06.08,1.47.23.41.16.74.35,1.01.59.26.24.47.5.61.79s.23.57.29.84l-1.85.52Z"/><path class="cls-2" d="m316.59,118.99c-.02-.1-.05-.22-.11-.36-.06-.13-.14-.26-.26-.38s-.27-.22-.46-.3c-.19-.08-.43-.12-.7-.12-.38,0-.69.1-.92.31-.23.2-.34.43-.34.68,0,.23.07.41.21.57.14.15.38.26.7.32l1.24.23c.44.08.83.21,1.16.38.33.18.61.39.83.63s.4.51.51.81c.11.3.17.61.17.94,0,.36-.07.72-.22,1.07s-.37.66-.66.93c-.29.27-.65.5-1.07.66-.43.17-.91.25-1.46.25-.64,0-1.19-.09-1.65-.28-.46-.19-.84-.42-1.15-.71s-.53-.6-.69-.95c-.16-.35-.25-.69-.29-1.02l1.89-.46c.02.21.07.41.15.61.08.2.2.36.36.51s.35.26.58.34c.23.09.51.13.82.13.41,0,.73-.09.96-.27.23-.18.34-.41.34-.7,0-.23-.09-.43-.27-.59-.18-.16-.42-.27-.72-.33l-1.26-.23c-.79-.15-1.41-.46-1.85-.95-.44-.49-.66-1.07-.66-1.76,0-.43.09-.83.27-1.2.18-.36.42-.68.72-.94.3-.26.66-.46,1.05-.61s.82-.22,1.26-.22c.57,0,1.06.08,1.47.23.41.16.74.35,1.01.59.26.24.47.5.61.79s.23.57.29.84l-1.85.52Z"/><path class="cls-2" d="m319.46,120.82c0-.73.13-1.39.38-1.99s.6-1.1,1.04-1.52c.44-.42.95-.74,1.53-.97s1.2-.34,1.85-.34,1.26.11,1.84.34c.58.23,1.08.55,1.52.97s.79.93,1.04,1.52.38,1.26.38,1.99-.13,1.39-.38,1.98c-.26.59-.6,1.1-1.04,1.52s-.95.74-1.52.97c-.58.23-1.19.34-1.84.34s-1.27-.11-1.85-.34-1.09-.55-1.53-.97c-.44-.42-.79-.93-1.04-1.52-.26-.59-.38-1.25-.38-1.98Zm2.13-.01c0,.49.08.9.23,1.25.16.35.36.64.62.87.26.23.54.4.86.51.32.11.64.16.96.16s.64-.05.96-.16c.32-.11.6-.28.85-.51.25-.23.46-.52.61-.87.16-.35.23-.76.23-1.25s-.08-.89-.23-1.25c-.16-.36-.36-.65-.61-.87-.25-.23-.54-.39-.85-.51-.32-.11-.64-.17-.96-.17s-.64.06-.96.17c-.32.11-.6.28-.86.51-.26.23-.46.52-.62.87-.16.36-.23.77-.23,1.25Z"/><path class="cls-2" d="m334.11,125.64c-.51,0-.99-.08-1.43-.23s-.83-.38-1.16-.68c-.33-.3-.59-.67-.78-1.11-.19-.44-.29-.95-.29-1.53v-5.9h2.06v5.73c0,.56.14.99.43,1.26.29.28.68.42,1.17.42s.88-.14,1.17-.42c.29-.28.43-.7.43-1.26v-5.73h2.06v5.9c0,.58-.1,1.09-.29,1.53-.19.44-.45.81-.78,1.11-.33.3-.72.53-1.17.68-.45.15-.92.23-1.42.23Z"/><path class="cls-2" d="m343.9,118.17v7.26h-2.06v-7.26h-2.84v-1.97h7.75v1.97h-2.85Z"/><path class="cls-2" d="m353.74,125.43v-3.67h-3.68v3.67h-2.06v-9.23h2.06v3.62h3.68v-3.62h2.07v9.23h-2.07Z"/><path class="cls-2" d="m248.95,141.25c-.67,0-1.29-.12-1.88-.34-.58-.23-1.09-.55-1.52-.97-.43-.42-.77-.92-1.02-1.51-.25-.59-.38-1.25-.38-1.97s.13-1.38.38-1.97c.26-.59.6-1.1,1.04-1.52s.94-.75,1.52-.98,1.19-.35,1.83-.35c.69,0,1.29.1,1.8.3.5.2.93.45,1.28.76.35.31.62.64.81,1.01s.33.71.41,1.04l-1.94.61c-.03-.16-.1-.33-.2-.53-.1-.2-.24-.39-.42-.57-.18-.18-.41-.33-.7-.44s-.63-.18-1.04-.18c-.31,0-.62.06-.94.17-.31.11-.59.29-.85.51-.25.23-.46.52-.61.88s-.23.78-.23,1.26c0,.43.07.82.22,1.16.15.34.34.62.59.86.25.23.53.41.85.53.32.12.65.18,1,.18.4,0,.74-.06,1.03-.18s.53-.26.72-.44c.19-.18.34-.37.45-.57.11-.2.18-.38.23-.55l1.97.56c-.08.32-.21.67-.41,1.04-.2.37-.47.72-.82,1.05-.35.33-.79.6-1.31.81s-1.14.33-1.85.33Z"/><path class="cls-2" d="m260.49,141.05v-3.67h-3.68v3.67h-2.06v-9.23h2.06v3.62h3.68v-3.62h2.07v9.23h-2.07Z"/><path class="cls-2" d="m270.07,139.18h-3.57l-.66,1.88h-2.16l3.48-9.23h2.38l3.44,9.23h-2.24l-.66-1.88Zm-2.89-1.87h2.24l-1.11-3.19-1.13,3.19Z"/><path class="cls-2" d="m276.89,137.62h-.73v3.44h-2.06v-9.23h3.66c.45,0,.86.07,1.23.22.37.15.68.35.94.61.26.26.46.57.61.92.14.35.21.73.21,1.14,0,.62-.16,1.17-.48,1.62-.32.46-.77.78-1.34.98l1.88,3.74h-2.27l-1.65-3.44Zm.48-1.77c.42,0,.75-.1.97-.31.22-.21.33-.48.33-.81,0-.35-.11-.62-.33-.82-.22-.2-.54-.3-.97-.3h-1.21v2.24h1.21Z"/><path class="cls-2" d="m282.28,141.05v-9.23h2.06v7.26h3.98v1.97h-6.04Z"/><path class="cls-2" d="m289.65,141.05v-9.23h5.84v1.94h-3.79v1.76h3.44v1.81h-3.44v1.77h3.8v1.95h-5.86Z"/><path class="cls-2" d="m300.03,137.62h-.73v3.44h-2.06v-9.23h3.66c.45,0,.86.07,1.23.22.37.15.68.35.94.61.26.26.46.57.61.92.14.35.21.73.21,1.14,0,.62-.16,1.17-.48,1.62-.32.46-.77.78-1.34.98l1.88,3.74h-2.27l-1.65-3.44Zm.48-1.77c.42,0,.75-.1.97-.31.22-.21.33-.48.33-.81,0-.35-.11-.62-.33-.82-.22-.2-.54-.3-.97-.3h-1.21v2.24h1.21Z"/><path class="cls-2" d="m304.82,136.45c0-.73.13-1.39.38-1.99s.6-1.1,1.04-1.52c.44-.42.95-.74,1.53-.97s1.2-.34,1.85-.34,1.26.11,1.84.34c.58.23,1.08.55,1.52.97s.79.93,1.04,1.52.38,1.26.38,1.99-.13,1.39-.38,1.98c-.26.59-.6,1.1-1.04,1.52s-.95.74-1.52.97c-.58.23-1.19.34-1.84.34s-1.27-.11-1.85-.34-1.09-.55-1.53-.97c-.44-.42-.79-.93-1.04-1.52-.26-.59-.38-1.25-.38-1.98Zm2.13-.01c0,.49.08.9.23,1.25.16.35.36.64.62.87.26.23.54.4.86.51.32.11.64.16.96.16s.64-.05.96-.16c.32-.11.6-.28.85-.51.25-.23.46-.52.61-.87.16-.35.23-.76.23-1.25s-.08-.89-.23-1.25c-.16-.36-.36-.65-.61-.87-.25-.23-.54-.39-.85-.51-.32-.11-.64-.17-.96-.17s-.64.06-.96.17c-.32.11-.6.28-.86.51-.26.23-.46.52-.62.87-.16.36-.23.77-.23,1.25Z"/><path class="cls-2" d="m315.88,141.05v-9.23h2.08v9.23h-2.08Z"/><path class="cls-2" d="m328.68,139.18h-3.57l-.66,1.88h-2.16l3.48-9.23h2.38l3.44,9.23h-2.24l-.66-1.88Zm-2.89-1.87h2.24l-1.11-3.19-1.13,3.19Z"/><path class="cls-2" d="m332.72,141.05v-9.23h2.08v9.23h-2.08Z"/><path class="cls-2" d="m339.58,137.62h-.73v3.44h-2.06v-9.23h3.66c.45,0,.86.07,1.23.22.37.15.68.35.94.61.26.26.46.57.61.92.14.35.21.73.21,1.14,0,.62-.16,1.17-.48,1.62-.32.46-.77.78-1.34.98l1.88,3.74h-2.27l-1.65-3.44Zm.48-1.77c.42,0,.75-.1.97-.31.22-.21.33-.48.33-.81,0-.35-.11-.62-.33-.82-.22-.2-.54-.3-.97-.3h-1.21v2.24h1.21Z"/><path class="cls-2" d="m347.02,137.74v3.32h-2.06v-9.23h3.48c.47,0,.9.07,1.28.22s.72.35,1,.61c.28.26.5.57.65.94.15.36.23.76.23,1.18s-.08.83-.23,1.2c-.15.36-.37.68-.65.94-.28.26-.62.46-1,.61-.39.14-.81.21-1.28.21h-1.42Zm1.21-1.77c.39,0,.71-.1.95-.31.24-.21.36-.5.36-.86s-.12-.66-.36-.87c-.24-.21-.56-.31-.95-.31h-1.2v2.36h1.2Z"/><path class="cls-2" d="m352.41,136.45c0-.73.13-1.39.38-1.99s.6-1.1,1.04-1.52c.44-.42.95-.74,1.53-.97s1.2-.34,1.85-.34,1.26.11,1.84.34c.58.23,1.08.55,1.52.97s.79.93,1.04,1.52.38,1.26.38,1.99-.13,1.39-.38,1.98c-.26.59-.6,1.1-1.04,1.52s-.95.74-1.52.97c-.58.23-1.19.34-1.84.34s-1.27-.11-1.85-.34-1.09-.55-1.53-.97c-.44-.42-.79-.93-1.04-1.52-.26-.59-.38-1.25-.38-1.98Zm2.13-.01c0,.49.08.9.23,1.25.16.35.36.64.62.87.26.23.54.4.86.51.32.11.64.16.96.16s.64-.05.96-.16c.32-.11.6-.28.85-.51.25-.23.46-.52.61-.87.16-.35.23-.76.23-1.25s-.08-.89-.23-1.25c-.16-.36-.36-.65-.61-.87-.25-.23-.54-.39-.85-.51-.32-.11-.64-.17-.96-.17s-.64.06-.96.17c-.32.11-.6.28-.86.51-.26.23-.46.52-.62.87-.16.36-.23.77-.23,1.25Z"/><path class="cls-2" d="m366.26,137.62h-.73v3.44h-2.06v-9.23h3.66c.45,0,.86.07,1.23.22.37.15.68.35.94.61.26.26.46.57.61.92.14.35.21.73.21,1.14,0,.62-.16,1.17-.48,1.62-.32.46-.77.78-1.34.98l1.88,3.74h-2.27l-1.65-3.44Zm.48-1.77c.42,0,.75-.1.97-.31.22-.21.33-.48.33-.81,0-.35-.11-.62-.33-.82-.22-.2-.54-.3-.97-.3h-1.21v2.24h1.21Z"/><path class="cls-2" d="m375.8,133.79v7.26h-2.06v-7.26h-2.84v-1.97h7.75v1.97h-2.85Z"/><path class="cls-2" d="m146.61,243.5c-.98,0-1.89-.17-2.74-.5-.85-.33-1.59-.81-2.21-1.42-.63-.61-1.12-1.34-1.49-2.21-.37-.86-.55-1.82-.55-2.87s.19-2.01.56-2.88c.37-.87.88-1.61,1.51-2.22.63-.61,1.37-1.09,2.21-1.43.84-.34,1.73-.51,2.67-.51,1.01,0,1.89.15,2.62.44.73.29,1.36.66,1.86,1.11.51.45.9.94,1.19,1.47.29.53.49,1.04.6,1.52l-2.83.89c-.05-.23-.15-.49-.29-.78-.15-.29-.35-.57-.62-.83s-.61-.48-1.02-.65c-.41-.17-.92-.26-1.51-.26-.46,0-.91.08-1.37.25-.46.17-.87.42-1.24.75s-.67.76-.89,1.28c-.23.52-.34,1.13-.34,1.84,0,.63.11,1.2.32,1.69.21.49.5.91.86,1.25.36.34.77.6,1.24.78s.95.27,1.45.27c.58,0,1.08-.08,1.5-.26.42-.17.77-.39,1.04-.65.28-.26.5-.54.66-.83.16-.29.27-.56.33-.8l2.87.82c-.11.47-.31.98-.6,1.52-.29.54-.68,1.05-1.2,1.53-.51.48-1.15.87-1.91,1.19-.76.32-1.66.48-2.7.48Z"/><path class="cls-2" d="m157.57,243.21h-2.89v-13.76h2.89v4.92c.29-.29.66-.51,1.11-.65.45-.14.88-.21,1.3-.21.62,0,1.16.1,1.61.29.45.2.82.47,1.11.81.29.34.51.74.65,1.2.14.46.21.94.21,1.46v5.93h-2.89v-5.43c0-.47-.12-.86-.37-1.17s-.64-.47-1.17-.47c-.46,0-.82.14-1.1.43-.28.29-.43.65-.46,1.09v5.55Z"/><path class="cls-2" d="m165.42,240.61c0-.42.07-.79.22-1.12s.34-.61.6-.85c.25-.23.55-.42.88-.57.33-.15.7-.25,1.09-.31l2.22-.34c.25-.04.43-.11.53-.23.1-.11.15-.25.15-.42,0-.28-.12-.52-.35-.72s-.58-.3-1.04-.3c-.51,0-.9.14-1.17.43s-.42.61-.45.96l-2.51-.51c.03-.34.13-.7.3-1.06s.43-.7.77-1.01c.34-.3.76-.56,1.26-.76.51-.2,1.11-.3,1.81-.3.76,0,1.41.1,1.94.29.53.2.97.46,1.3.8.33.34.58.73.72,1.17s.22.91.22,1.39v4.62c0,.37.02.69.05.97.03.28.05.44.07.49h-2.6s-.03-.14-.06-.31-.04-.42-.04-.75c-.25.41-.6.73-1.05.97-.44.24-.98.36-1.62.36-.52,0-.98-.08-1.39-.24-.41-.16-.75-.37-1.03-.64-.28-.27-.49-.57-.64-.91-.15-.34-.22-.7-.22-1.08Zm3.97.78c.22,0,.43-.03.64-.09.21-.06.39-.16.55-.3s.29-.34.39-.58c.1-.24.15-.54.15-.91v-.42l-1.79.29c-.3.05-.56.16-.76.31-.2.16-.3.4-.3.73,0,.25.09.48.26.67.17.2.46.29.86.29Z"/><path class="cls-2" d="m182.37,236.62c-.17-.04-.32-.06-.48-.08s-.3-.02-.44-.02c-.29,0-.57.04-.84.13-.27.09-.5.23-.7.44-.2.2-.36.47-.48.8-.12.33-.18.73-.18,1.2v4.12h-2.89v-9.44h2.79v1.27c.13-.27.29-.49.48-.67.2-.18.41-.32.64-.42.23-.1.46-.17.69-.22.23-.04.45-.07.64-.07.29,0,.54.03.76.1v2.85Z"/><path class="cls-2" d="m184.12,243.21v-13.76h2.89v13.76h-2.89Z"/><path class="cls-2" d="m198.14,240.5c-.11.41-.29.79-.53,1.16-.24.37-.54.69-.91.96-.37.27-.8.49-1.28.65s-1.03.24-1.62.24c-.65,0-1.27-.11-1.86-.34-.59-.23-1.12-.56-1.58-.99s-.82-.96-1.08-1.58c-.27-.62-.4-1.33-.4-2.13s.13-1.45.39-2.06.61-1.14,1.05-1.57c.44-.43.94-.76,1.51-1,.57-.23,1.16-.35,1.77-.35,1.47,0,2.63.42,3.47,1.27.84.85,1.26,2.04,1.26,3.57,0,.2,0,.4-.02.58-.01.18-.03.29-.04.31h-6.58c.01.27.08.51.2.73.12.22.28.42.47.58.2.17.42.29.67.38.25.09.52.13.8.13.53,0,.95-.11,1.25-.34.3-.23.52-.53.66-.89l2.41.68Zm-2.62-3.13c-.01-.18-.05-.36-.12-.55-.07-.19-.18-.36-.33-.51-.15-.15-.34-.28-.58-.38s-.52-.15-.87-.15c-.3,0-.57.05-.8.15-.23.1-.42.23-.58.38-.16.15-.28.32-.36.51-.08.19-.13.37-.14.55h3.78Z"/><path class="cls-2" d="m206.18,236.62c-.17-.04-.32-.06-.48-.08s-.3-.02-.44-.02c-.29,0-.57.04-.84.13-.27.09-.5.23-.7.44-.2.2-.36.47-.48.8-.12.33-.18.73-.18,1.2v4.12h-2.89v-9.44h2.79v1.27c.13-.27.29-.49.48-.67.2-.18.41-.32.64-.42.23-.1.46-.17.69-.22.23-.04.45-.07.64-.07.29,0,.54.03.76.1v2.85Z"/><path class="cls-2" d="m212.15,233.48c.71,0,1.37.12,1.98.37.61.25,1.14.59,1.59,1.04.45.44.8.97,1.06,1.58s.39,1.28.39,2.01-.13,1.41-.39,2.02-.61,1.14-1.06,1.59c-.45.44-.98.79-1.59,1.04-.61.25-1.27.37-1.98.37s-1.37-.12-1.98-.37-1.14-.59-1.59-1.04c-.45-.44-.8-.97-1.06-1.59s-.39-1.29-.39-2.02.13-1.41.39-2.01.61-1.13,1.06-1.58c.45-.44.98-.79,1.59-1.04s1.27-.37,1.98-.37Zm0,7.35c.28,0,.54-.05.8-.14.25-.1.48-.24.67-.44s.35-.44.47-.73.18-.64.18-1.04-.06-.74-.18-1.04-.28-.54-.47-.73-.42-.33-.67-.43c-.25-.09-.52-.14-.8-.14s-.53.05-.79.14-.49.24-.68.43c-.2.19-.36.43-.48.73s-.18.64-.18,1.04.06.74.18,1.04c.12.3.28.54.48.74.2.2.42.34.68.44.26.09.52.14.79.14Z"/><path class="cls-2" d="m218.78,230.88c0-.23.04-.45.13-.66s.21-.39.36-.54.33-.27.53-.36c.2-.09.42-.13.65-.13.48,0,.89.17,1.22.49.33.33.49.73.49,1.2s-.17.87-.49,1.2c-.33.33-.74.49-1.22.49-.23,0-.44-.04-.65-.13-.2-.09-.38-.21-.53-.36s-.27-.33-.36-.54-.13-.43-.13-.66Zm.25,12.33v-9.44h2.89v9.44h-2.89Z"/><path class="cls-2" d="m224.02,238.79v-2.6h5.7v2.6h-5.7Z"/><path class="cls-2" d="m238.26,243.5c-.98,0-1.89-.17-2.74-.5-.85-.33-1.59-.81-2.21-1.42-.63-.61-1.12-1.34-1.49-2.21-.37-.86-.55-1.82-.55-2.87s.19-2.01.56-2.88c.37-.87.88-1.61,1.51-2.22.63-.61,1.37-1.09,2.21-1.43.84-.34,1.73-.51,2.67-.51,1.01,0,1.89.15,2.62.44.73.29,1.36.66,1.86,1.11.51.45.9.94,1.19,1.47.29.53.49,1.04.6,1.52l-2.83.89c-.05-.23-.15-.49-.29-.78-.15-.29-.35-.57-.62-.83s-.61-.48-1.02-.65c-.41-.17-.92-.26-1.51-.26-.46,0-.91.08-1.37.25-.46.17-.87.42-1.24.75s-.67.76-.89,1.28c-.23.52-.34,1.13-.34,1.84,0,.63.11,1.2.32,1.69.21.49.5.91.86,1.25.36.34.77.6,1.24.78s.95.27,1.45.27c.58,0,1.08-.08,1.5-.26.42-.17.77-.39,1.04-.65.28-.26.5-.54.66-.83.16-.29.27-.56.33-.8l2.87.82c-.11.47-.31.98-.6,1.52-.29.54-.68,1.05-1.2,1.53-.51.48-1.15.87-1.91,1.19-.76.32-1.66.48-2.7.48Z"/><path class="cls-2" d="m254.81,240.5c-.11.41-.29.79-.53,1.16-.24.37-.54.69-.91.96-.37.27-.8.49-1.28.65s-1.03.24-1.62.24c-.65,0-1.27-.11-1.86-.34-.59-.23-1.12-.56-1.58-.99s-.82-.96-1.08-1.58c-.27-.62-.4-1.33-.4-2.13s.13-1.45.39-2.06.61-1.14,1.05-1.57c.44-.43.94-.76,1.51-1,.57-.23,1.16-.35,1.77-.35,1.47,0,2.63.42,3.47,1.27.84.85,1.26,2.04,1.26,3.57,0,.2,0,.4-.02.58-.01.18-.03.29-.04.31h-6.58c.01.27.08.51.2.73.12.22.28.42.47.58.2.17.42.29.67.38.25.09.52.13.8.13.53,0,.95-.11,1.25-.34.3-.23.52-.53.66-.89l2.41.68Zm-2.62-3.13c-.01-.18-.05-.36-.12-.55-.07-.19-.18-.36-.33-.51-.15-.15-.34-.28-.58-.38s-.52-.15-.87-.15c-.3,0-.57.05-.8.15-.23.1-.42.23-.58.38-.16.15-.28.32-.36.51-.08.19-.13.37-.14.55h3.78Z"/><path class="cls-2" d="m259.73,243.21h-2.89v-9.44h2.79v1.08c.13-.23.29-.42.49-.59.2-.17.42-.3.66-.41.23-.11.48-.19.74-.25.26-.06.51-.08.75-.08.59,0,1.11.1,1.54.29.43.2.79.47,1.07.81.28.34.49.74.63,1.2.13.46.2.94.2,1.46v5.93h-2.89v-5.43c0-.47-.12-.86-.37-1.17s-.64-.47-1.17-.47c-.48,0-.86.16-1.14.47-.28.31-.42.71-.42,1.19v5.42Z"/><path class="cls-2" d="m271.61,233.77h1.84v2.53h-1.84v3.53c0,.39.09.66.29.79s.44.2.76.2c.15,0,.29,0,.43-.03.13-.02.24-.04.33-.07v2.39c-.06.03-.22.08-.46.15-.24.08-.59.11-1.05.11-.99,0-1.76-.27-2.32-.81-.56-.54-.84-1.28-.84-2.23v-4.05h-1.67v-2.53h.47c.49,0,.86-.15,1.1-.44.24-.29.36-.66.36-1.1v-1.22h2.58v2.76Z"/><path class="cls-2" d="m281.39,236.62c-.17-.04-.32-.06-.48-.08s-.3-.02-.44-.02c-.29,0-.57.04-.84.13-.27.09-.5.23-.7.44-.2.2-.36.47-.48.8-.12.33-.18.73-.18,1.2v4.12h-2.89v-9.44h2.79v1.27c.13-.27.29-.49.48-.67.2-.18.41-.32.64-.42.23-.1.46-.17.69-.22.23-.04.45-.07.64-.07.29,0,.54.03.76.1v2.85Z"/><path class="cls-2" d="m282.65,240.61c0-.42.07-.79.22-1.12.15-.33.34-.61.6-.85.25-.23.55-.42.88-.57.34-.15.7-.25,1.09-.31l2.22-.34c.25-.04.43-.11.53-.23.1-.11.15-.25.15-.42,0-.28-.12-.52-.35-.72-.24-.2-.58-.3-1.04-.3-.51,0-.9.14-1.17.43s-.42.61-.45.96l-2.51-.51c.03-.34.13-.7.3-1.06.18-.37.43-.7.77-1.01.33-.3.76-.56,1.26-.76.51-.2,1.11-.3,1.8-.3.76,0,1.41.1,1.94.29.53.2.97.46,1.3.8s.58.73.72,1.17c.15.44.22.91.22,1.39v4.62c0,.37.02.69.05.97.03.28.05.44.07.49h-2.6s-.03-.14-.06-.31-.04-.42-.04-.75c-.25.41-.6.73-1.04.97-.44.24-.98.36-1.62.36-.52,0-.98-.08-1.39-.24s-.75-.37-1.03-.64c-.28-.27-.49-.57-.64-.91-.15-.34-.22-.7-.22-1.08Zm3.97.78c.21,0,.43-.03.64-.09.21-.06.39-.16.55-.3s.29-.34.39-.58c.1-.24.15-.54.15-.91v-.42l-1.79.29c-.3.05-.56.16-.76.31-.2.16-.3.4-.3.73,0,.25.08.48.26.67.17.2.46.29.87.29Z"/><path class="cls-2" d="m292.93,240.61c0-.42.07-.79.22-1.12s.34-.61.6-.85c.25-.23.55-.42.88-.57.33-.15.7-.25,1.09-.31l2.22-.34c.25-.04.43-.11.53-.23.1-.11.15-.25.15-.42,0-.28-.12-.52-.35-.72s-.58-.3-1.04-.3c-.51,0-.9.14-1.17.43s-.42.61-.45.96l-2.51-.51c.03-.34.13-.7.3-1.06s.43-.7.77-1.01c.34-.3.76-.56,1.26-.76.51-.2,1.11-.3,1.81-.3.76,0,1.41.1,1.94.29.53.2.97.46,1.3.8.33.34.58.73.72,1.17s.22.91.22,1.39v4.62c0,.37.02.69.05.97.03.28.05.44.07.49h-2.6s-.03-.14-.06-.31-.04-.42-.04-.75c-.25.41-.6.73-1.05.97-.44.24-.98.36-1.62.36-.52,0-.98-.08-1.39-.24-.41-.16-.75-.37-1.03-.64-.28-.27-.49-.57-.64-.91-.15-.34-.22-.7-.22-1.08Zm3.97.78c.22,0,.43-.03.64-.09.21-.06.39-.16.55-.3s.29-.34.39-.58c.1-.24.15-.54.15-.91v-.42l-1.79.29c-.3.05-.56.16-.76.31-.2.16-.3.4-.3.73,0,.25.09.48.26.67.17.2.46.29.86.29Z"/><path class="cls-2" d="m303.88,243.21v-13.76h2.89v13.76h-2.89Z"/><path class="cls-2" d="m249.36,51.01v-13.47h8.68v2.85h-5.68v2.85h5v2.74h-4.98v5.04h-3.02Z"/><path class="cls-2" d="m259.99,51.01v-13.76h2.89v13.76h-2.89Z"/><path class="cls-2" d="m274.01,48.29c-.11.41-.29.79-.53,1.16-.24.37-.54.69-.91.96s-.79.49-1.28.65c-.49.16-1.03.24-1.62.24-.65,0-1.27-.11-1.86-.34-.6-.23-1.12-.56-1.58-.99s-.82-.96-1.08-1.58c-.27-.62-.4-1.33-.4-2.13s.13-1.45.39-2.06.61-1.14,1.04-1.57c.44-.43.94-.76,1.51-1s1.16-.35,1.77-.35c1.47,0,2.62.42,3.47,1.27s1.26,2.04,1.26,3.57c0,.2,0,.4-.02.58-.01.18-.03.29-.04.31h-6.58c.01.27.08.51.2.73s.28.42.48.58c.2.17.42.29.67.38.25.09.52.13.8.13.53,0,.95-.11,1.24-.34.3-.23.52-.53.66-.89l2.41.68Zm-2.62-3.13c-.01-.18-.05-.36-.12-.55-.07-.19-.18-.36-.33-.51s-.35-.28-.58-.38-.52-.15-.86-.15c-.3,0-.57.05-.8.15-.23.1-.42.23-.58.38-.16.15-.28.32-.36.51-.08.19-.13.37-.14.55h3.78Z"/><path class="cls-2" d="m282.11,51.01c-.03-.09-.04-.24-.06-.45s-.02-.38-.02-.5c-.25.41-.62.7-1.09.88-.48.18-.95.28-1.43.28-.57,0-1.08-.1-1.53-.29-.45-.2-.83-.46-1.13-.8-.3-.33-.54-.72-.69-1.17-.16-.44-.24-.92-.24-1.42v-5.97h2.89v5.36c0,.46.12.84.37,1.16.25.32.63.48,1.15.48.48,0,.87-.15,1.15-.45.28-.3.43-.69.43-1.17v-5.38h2.89v7.75c0,.43.01.8.04,1.11.03.31.04.5.06.58h-2.78Z"/><path class="cls-2" d="m293.34,44.41c-.17-.04-.32-.06-.48-.08s-.3-.02-.44-.02c-.29,0-.57.04-.84.13-.27.09-.5.23-.7.44-.2.2-.36.47-.48.8-.12.33-.18.73-.18,1.2v4.12h-2.89v-9.44h2.79v1.27c.13-.27.29-.49.48-.67.2-.18.41-.32.64-.42.23-.1.46-.17.69-.22.23-.04.45-.07.64-.07.29,0,.54.03.76.1v2.85Z"/><path class="cls-2" d="m301.11,51.01c-.03-.09-.04-.24-.06-.45s-.02-.38-.02-.5c-.25.41-.62.7-1.09.88-.48.18-.95.28-1.43.28-.57,0-1.08-.1-1.53-.29-.45-.2-.83-.46-1.13-.8-.3-.33-.54-.72-.69-1.17-.16-.44-.24-.92-.24-1.42v-5.97h2.89v5.36c0,.46.12.84.37,1.16.25.32.63.48,1.15.48.48,0,.87-.15,1.15-.45.28-.3.43-.69.43-1.17v-5.38h2.89v7.75c0,.43.01.8.04,1.11.03.31.04.5.06.58h-2.78Z"/><path class="cls-2" d="m308.01,47.89c.03.33.16.62.39.88s.6.39,1.09.39c.37,0,.64-.08.83-.25.18-.16.28-.35.28-.57,0-.18-.07-.33-.2-.47s-.38-.24-.73-.31l-1.08-.25c-.51-.11-.94-.27-1.29-.46-.35-.19-.65-.41-.87-.67-.23-.25-.39-.53-.49-.84-.1-.3-.15-.62-.15-.95,0-.43.09-.84.27-1.22s.43-.71.75-1,.71-.51,1.15-.67.93-.25,1.46-.25c.68,0,1.26.09,1.73.29.47.19.85.43,1.15.71.3.29.52.59.66.91.14.32.22.62.25.9l-2.39.44c-.04-.32-.16-.59-.37-.82-.21-.23-.54-.34-.98-.34-.28,0-.52.07-.72.22-.2.15-.3.35-.3.6,0,.2.07.36.21.48.14.11.32.19.53.23l1.25.25c.99.2,1.72.57,2.19,1.11.48.54.71,1.16.71,1.85,0,.41-.08.8-.23,1.18-.15.38-.39.72-.7,1.02-.32.3-.71.54-1.18.72s-1.02.28-1.65.28c-.75,0-1.37-.1-1.87-.31-.5-.21-.9-.47-1.21-.77s-.53-.63-.67-.97c-.15-.34-.23-.65-.24-.91l2.45-.44Z"/><path class="cls-2" d="m145.09,42.61v-13.47h3v10.6h5.82v2.87h-8.82Z"/><path class="cls-2" d="m161.55,42.61c-.03-.09-.04-.24-.06-.45-.01-.21-.02-.38-.02-.5-.25.41-.62.7-1.09.88-.48.18-.95.28-1.44.28-.57,0-1.08-.1-1.53-.29-.45-.2-.83-.46-1.13-.8-.3-.33-.54-.72-.69-1.17-.16-.44-.24-.92-.24-1.42v-5.97h2.89v5.36c0,.46.12.84.37,1.16.25.32.63.48,1.15.48.48,0,.86-.15,1.15-.45.29-.3.43-.69.43-1.17v-5.38h2.89v7.75c0,.43.01.8.04,1.11.02.31.04.5.06.58h-2.78Z"/><path class="cls-2" d="m170.23,33.17h1.84v2.53h-1.84v3.53c0,.39.09.66.28.79.19.13.44.2.76.2.15,0,.29,0,.43-.03.13-.02.24-.04.33-.07v2.39c-.06.03-.22.08-.46.15-.24.08-.59.11-1.04.11-.99,0-1.76-.27-2.32-.81-.56-.54-.84-1.28-.84-2.23v-4.05h-1.67v-2.53h.47c.49,0,.86-.15,1.1-.44.24-.29.36-.66.36-1.1v-1.22h2.58v2.76Z"/><path class="cls-2" d="m177.49,33.17h1.84v2.53h-1.84v3.53c0,.39.1.66.29.79.19.13.44.2.76.2.15,0,.29,0,.43-.03.13-.02.24-.04.33-.07v2.39c-.06.03-.22.08-.46.15-.24.08-.59.11-1.04.11-.99,0-1.76-.27-2.32-.81-.56-.54-.84-1.28-.84-2.23v-4.05h-1.67v-2.53h.48c.49,0,.86-.15,1.1-.44.24-.29.36-.66.36-1.1v-1.22h2.58v2.76Z"/><path class="cls-2" d="m187.28,36.02c-.17-.04-.32-.06-.47-.08-.15-.01-.3-.02-.44-.02-.29,0-.57.04-.84.13-.27.09-.5.23-.7.44s-.37.47-.48.8c-.12.33-.18.73-.18,1.2v4.12h-2.89v-9.44h2.79v1.27c.13-.27.29-.49.48-.67.2-.18.41-.32.64-.42.23-.1.46-.17.69-.22.23-.04.45-.07.64-.07.29,0,.54.03.76.1v2.85Z"/><path class="cls-2" d="m197.5,39.89c-.11.41-.29.79-.53,1.16-.24.37-.54.69-.91.96s-.79.49-1.28.65c-.49.16-1.03.24-1.62.24-.65,0-1.27-.11-1.86-.34-.6-.23-1.12-.56-1.58-.99-.46-.43-.82-.96-1.08-1.58-.27-.62-.4-1.33-.4-2.13s.13-1.45.39-2.06.61-1.14,1.04-1.57c.44-.43.94-.76,1.51-1,.57-.23,1.16-.35,1.77-.35,1.47,0,2.63.42,3.47,1.27.84.85,1.26,2.04,1.26,3.57,0,.2,0,.4-.02.58-.01.18-.03.29-.04.31h-6.58c.01.27.08.51.2.73s.28.42.48.58c.2.17.42.29.67.38.25.09.52.13.8.13.53,0,.95-.11,1.24-.34.3-.23.52-.53.66-.89l2.41.68Zm-2.62-3.13c-.01-.18-.05-.36-.12-.55-.07-.19-.18-.36-.33-.51-.15-.15-.34-.28-.58-.38s-.52-.15-.86-.15c-.3,0-.57.05-.8.15-.23.1-.42.23-.58.38-.16.15-.28.32-.36.51-.08.19-.13.37-.14.55h3.78Z"/><circle class="cls-2" cx="134.03" cy="40.3" r="4.94"/><circle class="cls-2" cx="322.71" cy="48.99" r="4.94"/><circle class="cls-2" cx="223.25" cy="221.84" r="4.94"/><rect class="cls-3" x="184.31" y="158.9" width="74.77" height="30.99" rx="7.38" ry="7.38"/><path class="cls-5" d="m251.71,190.89h-60.02c-4.62,0-8.38-3.76-8.38-8.38v-16.23c0-4.62,3.76-8.38,8.38-8.38h60.02c4.62,0,8.38,3.76,8.38,8.38v16.23c0,4.62-3.76,8.38-8.38,8.38Zm-60.02-30.99c-3.52,0-6.38,2.86-6.38,6.38v16.23c0,3.52,2.86,6.38,6.38,6.38h60.02c3.52,0,6.38-2.86,6.38-6.38v-16.23c0-3.52-2.86-6.38-6.38-6.38h-60.02Z"/><path class="cls-5" d="m244.58,183.59c-1.76,0-3.19-1.43-3.19-3.19s1.43-3.19,3.19-3.19,3.19,1.43,3.19,3.19-1.43,3.19-3.19,3.19Zm0-4.88c-.93,0-1.69.76-1.69,1.69s.76,1.69,1.69,1.69,1.69-.76,1.69-1.69-.76-1.69-1.69-1.69Z"/><path class="cls-5" d="m226.58,183.59c-1.76,0-3.19-1.43-3.19-3.19s1.43-3.19,3.19-3.19,3.19,1.43,3.19,3.19-1.43,3.19-3.19,3.19Zm0-4.88c-.93,0-1.69.76-1.69,1.69s.76,1.69,1.69,1.69,1.69-.76,1.69-1.69-.76-1.69-1.69-1.69Z"/><path class="cls-5" d="m249.76,181.15h-3.05v-1.5h2.3v-3.52l-.93-6.93c-.11-.84-.83-1.47-1.68-1.47h-23.95v11.92h1.69v1.5h-2.44c-.41,0-.75-.34-.75-.75v-12.81c0-.75.61-1.36,1.36-1.36h24.09c1.59,0,2.95,1.19,3.16,2.77l.94,7.03v4.37c0,.41-.33.75-.74.75Z"/><rect class="cls-5" x="229.02" y="179.65" width="13.42" height="1.5"/><rect class="cls-5" x="227.66" y="169.42" width="1.5" height="4.88"/><rect class="cls-5" x="233.15" y="169.42" width="1.5" height="4.88"/><rect class="cls-5" x="238.64" y="169.42" width="1.5" height="4.88"/><path class="cls-5" d="m244.88,175.05h-20.13c-.41,0-.75-.34-.75-.75v-4.88c0-.41.34-.75.75-.75h24.4v1.5h-23.65v3.38h19.38v1.5Z"/><path class="cls-5" d="m249.76,176.88h-1.83c-.14,0-.27-.04-.39-.11l-3.05-1.83c-.23-.14-.36-.38-.36-.64v-4.88h1.5v4.46l2.51,1.5h1.62v1.5Z"/><path class="cls-5" d="m200.45,177.51h-5l-.93,2.63h-3.03l4.87-12.93h3.34l4.81,12.93h-3.14l-.93-2.63Zm-4.05-2.63h3.14l-1.55-4.47-1.59,4.47Z"/><path class="cls-5" d="m208.14,180.14v-7.7h-2.83v-1.92c.44,0,.84-.06,1.22-.18.38-.12.71-.28.98-.48.28-.2.51-.43.68-.7.18-.27.29-.55.34-.86h2.46v11.83h-2.86Z"/><rect class="cls-7" x="252.8" y="68.72" width="74.77" height="30.99" rx="7.38" ry="7.38"/><path class="cls-5" d="m320.2,100.71h-60.02c-4.62,0-8.38-3.76-8.38-8.38v-16.23c0-4.62,3.76-8.38,8.38-8.38h60.02c4.62,0,8.38,3.76,8.38,8.38v16.23c0,4.62-3.76,8.38-8.38,8.38Zm-60.02-30.99c-3.52,0-6.38,2.86-6.38,6.38v16.23c0,3.52,2.86,6.38,6.38,6.38h60.02c3.52,0,6.38-2.86,6.38-6.38v-16.23c0-3.52-2.86-6.38-6.38-6.38h-60.02Z"/><path class="cls-5" d="m313.07,93.41c-1.76,0-3.19-1.43-3.19-3.19s1.43-3.19,3.19-3.19,3.19,1.43,3.19,3.19-1.43,3.19-3.19,3.19Zm0-4.88c-.93,0-1.69.76-1.69,1.69s.76,1.69,1.69,1.69,1.69-.76,1.69-1.69-.76-1.69-1.69-1.69Z"/><path class="cls-5" d="m295.07,93.41c-1.76,0-3.19-1.43-3.19-3.19s1.43-3.19,3.19-3.19,3.19,1.43,3.19,3.19-1.43,3.19-3.19,3.19Zm0-4.88c-.93,0-1.69.76-1.69,1.69s.76,1.69,1.69,1.69,1.69-.76,1.69-1.69-.76-1.69-1.69-1.69Z"/><path class="cls-5" d="m318.25,90.97h-3.05v-1.5h2.3v-3.52l-.93-6.93c-.11-.83-.83-1.47-1.68-1.47h-23.95v11.92h1.69v1.5h-2.44c-.41,0-.75-.34-.75-.75v-12.81c0-.75.61-1.36,1.36-1.36h24.09c1.59,0,2.95,1.19,3.16,2.77l.94,7.03v4.37c0,.41-.33.75-.74.75Z"/><rect class="cls-5" x="297.51" y="89.47" width="13.42" height="1.5"/><rect class="cls-5" x="296.15" y="79.24" width="1.5" height="4.88"/><rect class="cls-5" x="301.64" y="79.24" width="1.5" height="4.88"/><rect class="cls-5" x="307.13" y="79.24" width="1.5" height="4.88"/><path class="cls-5" d="m313.37,84.87h-20.13c-.41,0-.75-.34-.75-.75v-4.88c0-.41.34-.75.75-.75h24.4v1.5h-23.65v3.38h19.38v1.5Z"/><path class="cls-5" d="m318.25,86.7h-1.83c-.14,0-.27-.04-.39-.11l-3.05-1.83c-.23-.14-.36-.38-.36-.64v-4.88h1.5v4.46l2.51,1.5h1.62v1.5Z"/><path class="cls-5" d="m268.94,87.33h-5l-.93,2.63h-3.03l4.87-12.93h3.34l4.81,12.93h-3.14l-.93-2.63Zm-4.05-2.63h3.14l-1.55-4.47-1.59,4.47Z"/><path class="cls-5" d="m273.94,82.85c-.02-.07-.05-.21-.07-.41-.02-.2-.04-.39-.04-.57,0-.52.1-1.03.29-1.51.19-.49.48-.92.86-1.29.38-.37.84-.67,1.39-.88.55-.22,1.18-.33,1.9-.33.68,0,1.29.1,1.83.31s1,.49,1.39.84c.38.35.67.77.88,1.24.2.47.3.97.3,1.5,0,.77-.2,1.46-.59,2.08-.39.62-.97,1.16-1.74,1.6l-2.24,1.33c-.17.11-.33.23-.46.36-.14.13-.25.28-.34.45h5.47v2.41h-8.99c0-.55.04-1.07.13-1.56.08-.49.23-.96.45-1.39s.5-.84.86-1.22c.36-.38.81-.72,1.36-1.04l1.93-1.13c.46-.28.79-.56.99-.83.2-.27.3-.6.3-.99s-.13-.71-.39-.98c-.26-.28-.66-.42-1.2-.42s-.98.17-1.25.5c-.27.33-.41.75-.41,1.25,0,.25.04.5.11.73l-2.7-.02Z"/><rect class="cls-1" x="118.96" y="62.36" width="74.77" height="30.99" rx="7.38" ry="7.38"/><path class="cls-5" d="m186.35,94.35h-60.02c-4.62,0-8.38-3.76-8.38-8.38v-16.23c0-4.62,3.76-8.38,8.38-8.38h60.02c4.62,0,8.38,3.76,8.38,8.38v16.23c0,4.62-3.76,8.38-8.38,8.38Zm-60.02-30.99c-3.52,0-6.38,2.86-6.38,6.38v16.23c0,3.52,2.86,6.38,6.38,6.38h60.02c3.52,0,6.38-2.86,6.38-6.38v-16.23c0-3.52-2.86-6.38-6.38-6.38h-60.02Z"/><path class="cls-5" d="m179.22,87.05c-1.76,0-3.19-1.43-3.19-3.19s1.43-3.19,3.19-3.19,3.19,1.43,3.19,3.19-1.43,3.19-3.19,3.19Zm0-4.88c-.93,0-1.69.76-1.69,1.69s.76,1.69,1.69,1.69,1.69-.76,1.69-1.69-.76-1.69-1.69-1.69Z"/><path class="cls-5" d="m161.22,87.05c-1.76,0-3.19-1.43-3.19-3.19s1.43-3.19,3.19-3.19,3.19,1.43,3.19,3.19-1.43,3.19-3.19,3.19Zm0-4.88c-.93,0-1.69.76-1.69,1.69s.76,1.69,1.69,1.69,1.69-.76,1.69-1.69-.76-1.69-1.69-1.69Z"/><path class="cls-5" d="m184.4,84.61h-3.05v-1.5h2.3v-3.52l-.93-6.93c-.11-.84-.83-1.47-1.68-1.47h-23.96v11.92h1.69v1.5h-2.44c-.41,0-.75-.34-.75-.75v-12.81c0-.75.61-1.36,1.36-1.36h24.09c1.59,0,2.95,1.19,3.16,2.77l.94,7.03v4.37c0,.41-.33.75-.74.75Z"/><rect class="cls-5" x="163.66" y="83.11" width="13.42" height="1.5"/><rect class="cls-5" x="162.3" y="72.88" width="1.5" height="4.88"/><rect class="cls-5" x="167.79" y="72.88" width="1.5" height="4.88"/><rect class="cls-5" x="173.28" y="72.88" width="1.5" height="4.88"/><path class="cls-5" d="m179.52,78.51h-20.13c-.41,0-.75-.34-.75-.75v-4.88c0-.41.34-.75.75-.75h24.4v1.5h-23.65v3.38h19.38v1.5Z"/><path class="cls-5" d="m184.4,80.34h-1.83c-.14,0-.27-.04-.39-.11l-3.05-1.83c-.23-.14-.36-.38-.36-.64v-4.88h1.5v4.46l2.51,1.5h1.62v1.5Z"/><path class="cls-5" d="m135.09,80.97h-5l-.93,2.63h-3.03l4.87-12.93h3.34l4.81,12.93h-3.14l-.93-2.63Zm-4.05-2.63h3.14l-1.55-4.47-1.59,4.47Z"/><path class="cls-5" d="m142.22,76.56l2.92-2.39h-4.94v-2.41h8.53v2.22l-2.92,2.26c.45.04.88.15,1.29.34s.76.44,1.06.76.54.69.71,1.11c.18.43.26.89.26,1.4s-.11,1.02-.32,1.5c-.21.48-.52.91-.91,1.28-.4.37-.88.67-1.46.88-.58.22-1.23.33-1.96.33s-1.32-.1-1.87-.31c-.55-.21-1.03-.48-1.43-.83-.4-.35-.72-.75-.96-1.2s-.38-.94-.43-1.45l2.77-.51c.02.52.21.96.55,1.32.34.36.79.54,1.35.54s.99-.16,1.3-.48c.31-.32.46-.7.46-1.14,0-.28-.05-.52-.15-.73-.1-.21-.23-.37-.39-.5-.16-.13-.35-.22-.56-.28-.21-.06-.41-.09-.62-.09-.2,0-.39.03-.58.08s-.35.12-.48.19l-1.24-1.9Z"/><path class="cls-6" d="m70.57,14.58c.37,0,.69.05.97.15.28.1.51.24.7.41.19.18.33.39.42.63.09.24.14.51.14.79,0,.26-.04.5-.12.74-.08.24-.19.45-.34.65-.15.2-.32.37-.53.51-.2.14-.43.25-.68.32.32.1.6.31.83.61.24.3.35.67.35,1.1,0,.38-.07.72-.22,1.04-.14.32-.35.59-.61.82-.26.23-.57.41-.92.55-.36.13-.75.2-1.18.2h-3.34l1.8-8.51h2.71Zm-1.38,7.28c.24,0,.46-.04.67-.11s.39-.17.53-.29.26-.27.35-.45.12-.37.12-.59c0-.3-.1-.55-.29-.74-.2-.19-.51-.29-.94-.29h-1.37l-.53,2.47h1.45Zm.55-3.68c.49,0,.88-.13,1.17-.39.29-.26.44-.59.44-1,0-.3-.1-.54-.29-.72-.2-.18-.49-.26-.89-.26h-1.14l-.5,2.38h1.22Z"/><path class="cls-6" d="m77.5,18.66c-.18-.04-.35-.06-.49-.06-.21,0-.41.03-.59.09-.19.06-.36.16-.53.29-.16.14-.31.32-.43.54-.12.22-.22.5-.29.83l-.59,2.74h-1.37l1.02-4.84c.06-.28.1-.51.11-.7.01-.18.02-.29.02-.31h1.34s0,.09,0,.16c0,.07,0,.14-.01.22s-.01.15-.02.23c-.01.08-.03.14-.04.2.11-.17.24-.31.38-.42.14-.11.29-.2.45-.26.16-.06.31-.11.47-.14.16-.03.31-.04.46-.04.16,0,.3.01.42.04l-.3,1.44Z"/><path class="cls-6" d="m80.37,17.24l-.72,3.36c-.04.18-.06.34-.06.47,0,.28.07.51.22.68.15.18.39.26.74.26.18,0,.35-.04.5-.11.15-.07.29-.17.4-.3s.21-.27.28-.44c.08-.16.13-.34.17-.52l.72-3.41h1.37l-.94,4.51c-.04.18-.07.36-.1.53-.02.17-.04.35-.04.53v.11s0,.09.01.15h-1.34s-.01-.09-.02-.14c0-.06,0-.12,0-.2v-.13s0-.1.01-.16c-.17.26-.39.45-.67.58s-.56.19-.83.19c-.62,0-1.09-.18-1.42-.53-.33-.36-.49-.81-.49-1.37,0-.2.02-.42.07-.65l.73-3.42h1.39Z"/><path class="cls-6" d="m85.59,21.05c0,.3.09.57.26.79s.44.34.8.34c.28,0,.49-.07.62-.21.14-.14.2-.29.2-.46,0-.12-.04-.23-.11-.34-.08-.11-.2-.2-.38-.28l-.74-.32c-.4-.18-.69-.4-.88-.66-.18-.26-.28-.57-.28-.91,0-.25.05-.49.16-.72.1-.23.25-.44.44-.62.19-.18.42-.32.68-.43.27-.1.57-.16.91-.16.42,0,.76.06,1.03.18.27.12.48.27.65.45.16.18.28.37.35.57.07.2.11.38.12.54l-1.21.25c0-.09-.03-.19-.06-.29-.03-.11-.09-.21-.16-.3s-.18-.17-.3-.23c-.12-.06-.28-.09-.47-.09-.25,0-.44.06-.58.19-.14.13-.21.28-.21.47,0,.14.04.26.11.35s.17.17.3.22l.77.34c.43.18.75.42.95.71.21.29.31.61.31.96,0,.21-.04.42-.13.65-.09.22-.22.43-.4.61-.18.18-.41.33-.68.45-.28.12-.61.17-.99.17-.46,0-.83-.07-1.12-.22-.29-.14-.52-.32-.69-.52s-.29-.42-.35-.65c-.06-.23-.1-.43-.1-.61l1.2-.23Z"/><path class="cls-6" d="m90.91,21.05c0,.3.09.57.26.79.18.22.44.34.8.34.28,0,.49-.07.62-.21.14-.14.2-.29.2-.46,0-.12-.04-.23-.11-.34-.08-.11-.2-.2-.38-.28l-.74-.32c-.4-.18-.69-.4-.88-.66-.18-.26-.28-.57-.28-.91,0-.25.05-.49.16-.72.1-.23.25-.44.44-.62.19-.18.42-.32.68-.43.27-.1.57-.16.91-.16.42,0,.76.06,1.03.18s.48.27.65.45c.16.18.28.37.35.57.07.2.11.38.11.54l-1.21.25c0-.09-.03-.19-.06-.29-.03-.11-.09-.21-.16-.3s-.18-.17-.3-.23c-.12-.06-.28-.09-.47-.09-.25,0-.44.06-.58.19-.14.13-.21.28-.21.47,0,.14.04.26.11.35.07.09.17.17.3.22l.77.34c.43.18.75.42.95.71s.31.61.31.96c0,.21-.04.42-.13.65-.09.22-.22.43-.4.61-.18.18-.41.33-.68.45-.28.12-.61.17-.99.17-.46,0-.83-.07-1.12-.22-.29-.14-.52-.32-.69-.52s-.28-.42-.35-.65c-.06-.23-.1-.43-.1-.61l1.2-.23Z"/><path class="cls-6" d="m96.62,20.54s-.01.08-.01.13c0,.42.13.75.38,1.01.26.26.59.39,1,.39.38,0,.7-.09.95-.26s.43-.37.54-.59l1.07.59c-.1.19-.23.38-.39.55-.16.18-.35.33-.57.46s-.46.24-.74.32c-.28.08-.57.12-.89.12-.36,0-.7-.06-1.03-.18-.32-.12-.61-.29-.85-.52-.24-.23-.44-.51-.58-.84s-.22-.71-.22-1.13c0-.55.09-1.05.27-1.48.18-.44.42-.81.71-1.11.29-.3.63-.54,1.01-.7.38-.16.77-.24,1.17-.24s.76.06,1.07.18c.31.12.57.29.79.5.21.21.37.47.49.76.11.3.17.62.17.97,0,.2-.02.39-.05.58-.04.19-.07.35-.11.49h-4.16Zm2.96-1.02s0-.04,0-.08c0-.04,0-.07,0-.1,0-.13-.02-.26-.06-.39s-.11-.25-.2-.36c-.09-.11-.21-.2-.37-.26-.15-.07-.34-.1-.56-.1s-.41.04-.59.11c-.18.07-.34.17-.47.29-.14.12-.25.26-.35.41s-.17.32-.22.49h2.81Z"/><path class="cls-6" d="m101.59,23.09l1.85-8.69h1.38l-1.85,8.69h-1.38Z"/><path class="cls-6" d="m50.68,33.95h-3.42l-1.22,2.14h-1.62l5.03-8.51h1.62l1.42,8.51h-1.48l-.32-2.14Zm-2.66-1.33h2.46l-.52-3.42-1.94,3.42Z"/><path class="cls-6" d="m57.03,36.09l.74-3.46c.02-.06.03-.13.04-.19,0-.06.01-.12.01-.18,0-.3-.08-.53-.25-.7s-.41-.25-.73-.25c-.2,0-.38.04-.54.11-.16.08-.29.18-.41.31-.12.13-.21.28-.29.44s-.13.34-.17.52l-.73,3.4h-1.38l1.02-4.84c.06-.28.1-.51.11-.7.01-.18.02-.29.02-.31h1.34s0,.12-.01.25c0,.13-.02.25-.05.36.21-.28.46-.48.77-.6s.63-.18.95-.18c.55,0,.98.17,1.3.5s.47.77.47,1.31c0,.1,0,.2-.02.32-.01.12-.03.23-.05.33l-.77,3.55h-1.38Z"/><path class="cls-6" d="m60.59,34.77c0-.07,0-.17.02-.29.01-.12.04-.26.08-.42l.55-2.58h-1.06l.26-1.24h.22c.34,0,.6-.08.79-.25s.31-.4.38-.7l.18-.84h1.26l-.4,1.79h1.16l-.26,1.24h-1.15l-.58,2.72c-.02.1-.04.18-.04.26,0,.14.04.25.14.35.09.1.26.14.5.14.13,0,.26-.01.41-.04l-.23,1.12c-.06.02-.14.05-.26.08-.12.03-.26.04-.44.04-.48,0-.86-.12-1.13-.37s-.41-.59-.41-1.02Z"/><path class="cls-6" d="m69.87,30.24l.49,4.02,1.98-4.02h1.46l-3.05,5.84h-1.39l-.53-4.18-2.17,4.18h-1.44l-.58-5.84h1.33l.34,4.01,2.09-4.01h1.46Z"/><path class="cls-6" d="m75.01,33.54s-.01.08-.01.13c0,.42.13.75.38,1.01.26.26.59.39,1,.39.38,0,.7-.09.95-.26s.43-.37.54-.59l1.07.59c-.1.19-.23.38-.39.55s-.35.33-.57.46c-.21.13-.46.24-.74.32-.28.08-.57.12-.89.12-.36,0-.7-.06-1.03-.18-.32-.12-.61-.29-.85-.52-.24-.23-.44-.51-.58-.84-.14-.33-.21-.71-.21-1.13,0-.55.09-1.05.27-1.48.18-.44.42-.81.71-1.11s.63-.54,1.01-.7c.38-.16.77-.24,1.17-.24s.76.06,1.07.18.57.29.79.5c.21.21.37.47.49.76.11.3.17.62.17.97,0,.2-.02.39-.05.58-.04.19-.07.35-.11.49h-4.16Zm2.96-1.02s0-.04,0-.08c0-.04,0-.07,0-.1,0-.13-.02-.26-.06-.39-.04-.13-.11-.25-.2-.36-.09-.11-.21-.2-.37-.26s-.34-.1-.56-.1-.41.04-.59.11-.34.17-.47.29-.25.26-.35.41c-.1.16-.17.32-.21.49h2.81Z"/><path class="cls-6" d="m84.29,31.66c-.18-.04-.35-.06-.49-.06-.21,0-.41.03-.59.09-.19.06-.36.16-.53.29-.16.14-.31.32-.43.54-.12.22-.22.5-.29.83l-.59,2.74h-1.37l1.02-4.84c.06-.28.1-.51.11-.7.01-.18.02-.29.02-.31h1.34s0,.09,0,.16c0,.07,0,.14-.01.22s-.01.15-.02.23c-.01.08-.03.14-.04.2.11-.17.24-.31.38-.42s.29-.2.45-.26c.16-.06.31-.11.47-.14.16-.03.31-.04.46-.04.16,0,.3.01.42.04l-.3,1.44Z"/><path class="cls-6" d="m86.91,30.88c.18-.24.43-.43.74-.57.31-.14.64-.21,1-.21.38,0,.7.06.98.19.28.13.51.31.7.53.19.23.33.49.42.8.09.3.14.63.14.97,0,.52-.08,1-.23,1.45-.15.44-.36.83-.63,1.16s-.59.58-.97.77-.79.28-1.24.28-.8-.09-1.12-.26c-.32-.18-.57-.4-.73-.68l-.65,3.07h-1.37l1.51-7.12c.06-.28.1-.51.11-.7.01-.18.02-.29.02-.31h1.34s0,.13-.01.26-.02.26-.04.37Zm1.25.46c-.24,0-.47.05-.68.16-.21.1-.4.25-.56.44-.16.19-.29.42-.38.7-.09.27-.14.57-.14.9,0,.48.12.85.36,1.1s.56.38.96.38c.21,0,.42-.05.63-.14.21-.1.4-.24.57-.43.17-.19.3-.43.41-.7.1-.28.16-.59.16-.95,0-.47-.12-.83-.36-1.07s-.56-.37-.97-.37Z"/><path class="cls-6" d="m92.98,33.54s-.01.08-.01.13c0,.42.13.75.38,1.01.26.26.59.39,1,.39.38,0,.7-.09.95-.26s.43-.37.54-.59l1.07.59c-.1.19-.23.38-.39.55-.16.18-.35.33-.57.46-.22.13-.46.24-.74.32-.28.08-.57.12-.89.12-.36,0-.7-.06-1.03-.18s-.61-.29-.85-.52c-.24-.23-.44-.51-.58-.84-.14-.33-.22-.71-.22-1.13,0-.55.09-1.05.27-1.48.18-.44.42-.81.71-1.11s.63-.54,1.01-.7.77-.24,1.17-.24.76.06,1.07.18.57.29.79.5.37.47.49.76c.11.3.17.62.17.97,0,.2-.02.39-.05.58-.04.19-.07.35-.11.49h-4.16Zm2.96-1.02s0-.04,0-.08c0-.04,0-.07,0-.1,0-.13-.02-.26-.06-.39-.04-.13-.11-.25-.2-.36-.09-.11-.21-.2-.37-.26s-.34-.1-.56-.1-.41.04-.59.11c-.18.07-.34.17-.47.29-.14.12-.25.26-.35.41-.1.16-.17.32-.22.49h2.81Z"/><path class="cls-6" d="m101.68,36.09l.74-3.46c.02-.06.03-.13.04-.19,0-.06.01-.12.01-.18,0-.3-.08-.53-.25-.7s-.41-.25-.73-.25c-.2,0-.38.04-.53.11s-.29.18-.41.31c-.12.13-.21.28-.29.44-.08.17-.13.34-.17.52l-.73,3.4h-1.38l1.02-4.84c.06-.28.1-.51.11-.7.01-.18.02-.29.02-.31h1.34s0,.12-.01.25-.02.25-.05.36c.21-.28.47-.48.77-.6.31-.12.62-.18.95-.18.55,0,.98.17,1.3.5.31.34.47.77.47,1.31,0,.1,0,.2-.02.32s-.03.23-.05.33l-.77,3.55h-1.38Z"/><path class="cls-6" d="m339.98,31.3c-.14,0-.29-.02-.43-.06-6.54-1.96-9.75-10.83-7.64-21.08.17-.81.96-1.34,1.77-1.17.81.17,1.33.96,1.17,1.77-1.76,8.55.63,16.12,5.56,17.6.79.24,1.24,1.07,1.01,1.87-.19.65-.79,1.07-1.44,1.07Z"/><polygon class="cls-6" points="328.24 14.19 333.22 11.17 336.25 16.15 337.08 12.75 334.06 7.77 329.07 10.79 328.24 14.19"/><path class="cls-6" d="m113.4,28.22c-.51,0-1.01-.26-1.29-.74-.42-.71-.18-1.63.53-2.05,4.43-2.62,4.94-10.54,1.18-18.42-.36-.75-.04-1.64.71-2,.75-.36,1.64-.04,2,.71,4.51,9.45,3.52,18.82-2.36,22.3-.24.14-.5.21-.76.21Z"/><polygon class="cls-6" points="113.75 12.57 115.49 7 121.05 8.74 119.43 5.65 113.86 3.91 112.13 9.47 113.75 12.57"/><path class="cls-6" d="m439.97,201.57l-2.62-6.41-1.36,6.41h-1.44l1.8-8.51h1.68l2.46,6.11,1.3-6.11h1.45l-1.81,8.51h-1.46Z"/><path class="cls-6" d="m449.71,195.72l-.95,4.45c-.04.18-.07.37-.09.55-.02.18-.03.37-.03.56v.12s0,.1.01.17h-1.29c0-.06-.01-.1-.01-.13v-.3c0-.06,0-.15.02-.29-.17.22-.39.41-.65.58s-.59.25-.95.25-.71-.07-1-.2c-.29-.13-.53-.31-.73-.55-.2-.23-.35-.5-.45-.82-.1-.31-.16-.65-.16-1.02,0-.49.08-.95.23-1.37.15-.43.36-.8.63-1.12s.59-.57.95-.76c.37-.18.77-.28,1.2-.28.26,0,.49.03.69.08.2.05.36.12.5.2.14.08.26.18.35.28.09.1.16.2.21.29l.16-.7h1.36Zm-3.16,1.07c-.28,0-.53.07-.74.2-.22.14-.4.31-.54.53-.14.22-.25.46-.33.73-.08.27-.12.53-.12.8,0,.43.11.78.32,1.04.21.26.52.39.93.39.23,0,.45-.06.66-.17.21-.11.39-.27.55-.48s.28-.45.37-.74.13-.6.13-.95c0-.4-.1-.73-.31-.98-.2-.25-.51-.38-.92-.38Z"/><path class="cls-6" d="m453.81,201.57l.74-3.54c.02-.12.04-.24.04-.36,0-.26-.07-.47-.22-.64s-.38-.25-.7-.25c-.36,0-.65.12-.86.37-.21.24-.36.56-.45.94l-.74,3.48h-1.37l1.02-4.84c.06-.28.1-.51.11-.7.01-.18.02-.29.02-.31h1.34s0,.12-.01.24c0,.12-.02.24-.04.35.41-.5.96-.76,1.64-.76.36,0,.67.08.92.25.26.17.45.39.58.66.27-.35.58-.59.92-.72.34-.13.7-.19,1.06-.19.25,0,.48.04.69.13.21.08.4.2.56.35.16.15.29.34.38.56.09.22.14.47.14.74,0,.11,0,.21-.02.3-.01.09-.03.18-.04.26l-.78,3.67h-1.38l.76-3.54c.02-.12.04-.23.04-.34,0-.26-.07-.48-.22-.65-.15-.17-.38-.26-.7-.26-.36,0-.65.12-.86.37s-.36.56-.44.94l-.74,3.48h-1.38Z"/><path class="cls-6" d="m461.88,199.02s-.01.08-.01.13c0,.42.13.75.38,1.01.26.26.59.39,1,.39.38,0,.7-.09.95-.26s.43-.37.54-.59l1.07.59c-.1.19-.23.38-.39.55-.16.18-.35.33-.57.46s-.46.24-.74.32c-.28.08-.57.12-.89.12-.36,0-.7-.06-1.03-.18-.32-.12-.61-.29-.85-.52-.24-.23-.44-.51-.58-.84s-.22-.71-.22-1.13c0-.55.09-1.05.27-1.48.18-.44.42-.81.71-1.11.29-.3.63-.54,1.01-.7.38-.16.77-.24,1.17-.24s.76.06,1.07.18c.31.12.57.29.79.5.21.21.37.47.49.76.11.3.17.62.17.97,0,.2-.02.39-.05.58-.04.19-.07.35-.11.49h-4.16Zm2.96-1.02s0-.04,0-.08c0-.04,0-.07,0-.1,0-.13-.02-.26-.06-.39s-.11-.25-.2-.36c-.09-.11-.21-.2-.37-.26-.15-.07-.34-.1-.56-.1s-.41.04-.59.11c-.18.07-.34.17-.47.29-.14.12-.25.26-.35.41s-.17.32-.22.49h2.81Z"/><path class="cls-6" d="m470.58,201.57l.74-3.46c.02-.06.03-.13.04-.19,0-.06.01-.12.01-.18,0-.3-.08-.53-.25-.7s-.41-.25-.73-.25c-.2,0-.38.04-.53.11-.16.08-.29.18-.41.31-.12.13-.21.28-.29.44s-.13.34-.17.52l-.73,3.4h-1.38l1.02-4.84c.06-.28.1-.51.11-.7.01-.18.02-.29.02-.31h1.34s0,.12-.01.25c0,.13-.02.25-.05.36.21-.28.47-.48.77-.6.31-.12.63-.18.96-.18.55,0,.98.17,1.29.5.31.34.47.77.47,1.31,0,.1,0,.2-.02.32-.01.12-.03.23-.05.33l-.77,3.55h-1.38Z"/><path class="cls-6" d="m473.72,200.81c0-.3.1-.55.31-.74s.46-.29.77-.29.55.1.74.29c.19.2.28.46.28.8,0,.35-.07.69-.2,1-.13.32-.31.59-.54.83-.23.24-.5.43-.82.58-.32.15-.65.23-1.01.26l.16-.73c.15-.02.31-.07.46-.14.16-.07.3-.16.43-.27.13-.11.24-.23.34-.37.1-.14.16-.29.19-.45-.06.03-.16.05-.28.05-.24,0-.44-.08-.59-.23-.16-.15-.23-.35-.23-.59Z"/><path class="cls-6" d="m454.47,214.57l1.8-8.51h1.44l-1.51,7.14h3.79l-.29,1.37h-5.23Z"/><path class="cls-6" d="m463.17,208.72l-.72,3.36c-.04.18-.06.34-.06.47,0,.28.07.51.22.68.15.18.39.26.74.26.18,0,.35-.04.5-.11s.28-.17.4-.3c.11-.13.21-.27.28-.44.08-.16.13-.34.17-.52l.72-3.41h1.37l-.94,4.51c-.04.18-.07.36-.1.53s-.04.35-.04.53v.11s0,.09.01.15h-1.34s-.01-.09-.02-.14c0-.06,0-.12,0-.2v-.13s0-.1.01-.16c-.17.26-.39.45-.67.58-.28.13-.56.19-.83.19-.62,0-1.09-.18-1.42-.53-.33-.36-.49-.81-.49-1.37,0-.2.02-.42.07-.65l.73-3.42h1.39Z"/><path class="cls-6" d="m467.35,214.57l1.25-5.84h1.38l-1.25,5.84h-1.38Zm1.45-7.84c0-.14.03-.26.08-.38.06-.12.13-.22.22-.31.09-.09.2-.16.32-.21.12-.05.24-.08.37-.08.24,0,.44.08.59.23s.23.34.23.56c0,.14-.03.28-.08.4-.06.12-.13.23-.22.32-.09.09-.2.16-.32.21-.12.05-.24.07-.37.07-.24,0-.44-.08-.59-.23-.15-.16-.23-.35-.23-.57Z"/><path class="cls-6" d="m473.34,212.03l-1.03.86-.35,1.67h-1.37l1.84-8.69h1.38l-1.08,5.05,2.59-2.21h1.97l-2.89,2.42,1.68,3.42h-1.54l-1.2-2.53Z"/><path class="cls-6" d="m21.43,216.69c.37,0,.69.05.97.15.28.1.51.24.7.41.19.18.33.39.42.63.09.24.14.51.14.79,0,.26-.04.5-.12.74-.08.24-.19.45-.34.65-.15.2-.32.37-.53.51-.2.14-.43.25-.68.32.32.1.6.31.83.61s.35.67.35,1.1c0,.38-.07.72-.22,1.04-.14.32-.35.59-.61.82-.26.23-.57.41-.92.55-.36.13-.75.2-1.18.2h-3.34l1.8-8.51h2.71Zm-1.38,7.28c.24,0,.46-.04.67-.11s.39-.17.53-.29c.15-.12.26-.27.35-.45s.13-.37.13-.59c0-.3-.1-.55-.29-.74-.2-.19-.51-.29-.94-.29h-1.37l-.53,2.47h1.45Zm.55-3.68c.49,0,.88-.13,1.17-.39.29-.26.44-.59.44-1,0-.3-.1-.54-.29-.72-.2-.18-.49-.26-.89-.26h-1.14l-.5,2.38h1.22Z"/><path class="cls-6" d="m25.49,222.66s-.01.08-.01.13c0,.42.13.75.38,1.01.26.26.59.39,1,.39.38,0,.7-.09.95-.26s.43-.37.54-.59l1.07.59c-.1.19-.23.38-.39.55-.16.18-.35.33-.57.46s-.46.24-.74.32c-.28.08-.57.12-.89.12-.36,0-.7-.06-1.03-.18s-.61-.29-.85-.52c-.24-.23-.44-.51-.58-.84-.14-.33-.22-.71-.22-1.13,0-.55.09-1.05.27-1.48.18-.44.42-.81.71-1.11s.63-.54,1.01-.7c.38-.16.77-.24,1.17-.24s.76.06,1.07.18c.31.12.57.29.79.5s.37.47.49.76c.11.3.17.62.17.97,0,.2-.02.39-.05.58-.04.19-.07.35-.11.49h-4.16Zm2.96-1.02s0-.04,0-.08c0-.04,0-.07,0-.1,0-.13-.02-.26-.06-.39s-.11-.25-.2-.36c-.09-.11-.21-.2-.37-.26-.15-.07-.34-.1-.56-.1s-.41.04-.59.11c-.18.07-.34.17-.47.29s-.25.26-.35.41c-.1.16-.17.32-.22.49h2.81Z"/><path class="cls-6" d="m34.77,220.77c-.18-.04-.35-.06-.49-.06-.21,0-.41.03-.59.09-.19.06-.36.16-.53.29-.16.14-.31.32-.43.54-.12.22-.22.5-.29.83l-.59,2.74h-1.37l1.02-4.84c.06-.28.1-.51.11-.7.01-.18.02-.29.02-.31h1.34s0,.09,0,.16c0,.07,0,.14-.01.22s-.01.15-.02.23c-.01.08-.03.14-.04.2.11-.17.24-.31.38-.42.14-.11.29-.2.45-.26.16-.06.31-.11.47-.14.16-.03.31-.04.46-.04.16,0,.3.01.42.04l-.3,1.44Z"/><path class="cls-6" d="m35.72,225.2c0,.22.04.4.11.56.07.16.17.29.29.39.12.1.26.18.42.23.16.05.32.08.49.08.52,0,.93-.16,1.23-.47s.51-.75.64-1.31l.1-.43c-.12.17-.3.32-.55.44s-.55.19-.9.19c-.38,0-.71-.06-1-.19s-.54-.3-.74-.52c-.2-.22-.36-.48-.47-.77s-.16-.62-.16-.96c0-.45.07-.87.22-1.26.15-.39.35-.73.61-1.02s.57-.52.94-.68c.36-.17.76-.25,1.19-.25s.81.08,1.11.24.52.36.65.6l.14-.72h1.38l-1.1,5.32c-.08.38-.2.76-.36,1.12s-.37.68-.64.95c-.26.28-.58.5-.96.67s-.82.25-1.33.25c-.43,0-.81-.06-1.13-.19-.32-.13-.59-.29-.8-.5-.21-.2-.37-.44-.47-.7-.1-.26-.16-.53-.16-.79l1.26-.28Zm3.78-3.48c0-.16-.03-.32-.08-.47-.05-.15-.13-.29-.24-.41-.11-.12-.24-.22-.4-.29-.16-.07-.34-.11-.56-.11-.24,0-.46.04-.66.13-.2.09-.38.21-.53.38s-.27.36-.35.6c-.08.24-.13.5-.13.8,0,.4.11.73.32.99.22.26.54.39.97.39.24,0,.46-.05.66-.14.2-.09.37-.23.52-.4.14-.18.26-.39.34-.64s.13-.53.13-.84Z"/><path class="cls-6" d="m43.37,222.66s-.01.08-.01.13c0,.42.13.75.38,1.01.26.26.59.39,1,.39.38,0,.7-.09.95-.26s.43-.37.54-.59l1.07.59c-.1.19-.23.38-.39.55-.16.18-.35.33-.57.46s-.46.24-.74.32c-.28.08-.57.12-.89.12-.36,0-.7-.06-1.03-.18s-.61-.29-.85-.52c-.24-.23-.44-.51-.58-.84-.14-.33-.22-.71-.22-1.13,0-.55.09-1.05.27-1.48.18-.44.42-.81.71-1.11s.63-.54,1.01-.7c.38-.16.77-.24,1.17-.24s.76.06,1.07.18c.31.12.57.29.79.5s.37.47.49.76c.11.3.17.62.17.97,0,.2-.02.39-.05.58-.04.19-.07.35-.11.49h-4.16Zm2.96-1.02s0-.04,0-.08c0-.04,0-.07,0-.1,0-.13-.02-.26-.06-.39s-.11-.25-.2-.36c-.09-.11-.21-.2-.37-.26-.15-.07-.34-.1-.56-.1s-.41.04-.59.11c-.18.07-.34.17-.47.29s-.25.26-.35.41c-.1.16-.17.32-.22.49h2.81Z"/><path class="cls-6" d="m52.06,225.2l.74-3.46c.02-.06.03-.13.04-.19,0-.06.01-.12.01-.18,0-.3-.08-.53-.25-.7s-.41-.25-.73-.25c-.2,0-.38.04-.53.11s-.29.18-.41.31c-.12.13-.21.28-.29.44s-.13.34-.17.52l-.73,3.4h-1.38l1.02-4.84c.06-.28.1-.51.11-.7.01-.18.02-.29.02-.31h1.34s0,.12-.01.25-.02.25-.05.36c.21-.28.47-.48.77-.6.31-.12.63-.18.95-.18.55,0,.98.17,1.3.5.31.34.47.77.47,1.31,0,.1,0,.2-.02.32s-.03.23-.05.33l-.77,3.55h-1.38Z"/><path class="cls-6" d="m465.08,190.47c-.78,0-1.44-.6-1.49-1.39-.44-6.12,6.53-10.27,19.62-11.69.82-.09,1.56.5,1.65,1.33.09.82-.51,1.56-1.33,1.65-10.91,1.18-17.24,4.36-16.95,8.5.06.83-.56,1.54-1.39,1.6-.04,0-.07,0-.11,0Z"/><polygon class="cls-6" points="478.16 175.27 482.66 178.97 478.96 183.47 482.44 183.13 486.14 178.63 481.64 174.93 478.16 175.27"/><path class="cls-6" d="m28.2,213.17c-.83,0-1.5-.67-1.5-1.5,0-5.15-6.56-9.62-15.26-10.38-.83-.07-1.44-.8-1.36-1.63s.82-1.44,1.63-1.36c10.43.92,18,6.55,18,13.37,0,.83-.67,1.5-1.5,1.5Z"/><polygon class="cls-6" points="16.19 204.18 12.29 199.85 16.62 195.95 13.12 195.77 8.8 199.67 12.7 204 16.19 204.18"/><path class="cls-6" d="m347.54,15.2c0-.82.13-1.55.4-2.19.26-.64.61-1.17,1.03-1.6.42-.43.91-.76,1.45-.98.54-.22,1.1-.33,1.67-.33s1.07.09,1.53.27.85.44,1.18.77c.32.33.57.73.75,1.19s.26.98.26,1.54c0,.82-.13,1.55-.39,2.19-.26.64-.6,1.17-1.03,1.6-.43.43-.91.76-1.46.98-.54.22-1.1.33-1.66.33s-1.07-.09-1.53-.28c-.46-.18-.85-.44-1.18-.77s-.58-.72-.76-1.19c-.18-.46-.27-.98-.27-1.54Zm6.8-1.22c0-.39-.06-.74-.17-1.06-.11-.31-.27-.58-.47-.79s-.45-.38-.74-.5c-.29-.12-.6-.17-.95-.17-.45,0-.85.09-1.22.28-.36.19-.68.45-.94.78-.26.33-.47.72-.62,1.16-.15.44-.22.91-.22,1.42,0,.4.06.76.17,1.07.11.31.27.58.47.79.2.22.45.38.74.49.29.11.6.17.95.17.44,0,.84-.1,1.21-.29.37-.19.68-.45.95-.78s.47-.71.61-1.15c.14-.44.22-.91.23-1.42Z"/><path class="cls-6" d="m357.1,17.47c0-.07,0-.17.02-.29.01-.12.04-.26.08-.42l.55-2.58h-1.06l.26-1.24h.22c.34,0,.6-.08.79-.25s.31-.4.38-.7l.18-.84h1.26l-.4,1.79h1.16l-.26,1.24h-1.15l-.58,2.72c-.03.1-.04.18-.04.26,0,.14.05.25.14.35.09.1.26.14.5.14.13,0,.26-.01.41-.04l-.23,1.12c-.06.02-.14.05-.26.08-.12.03-.26.04-.44.04-.48,0-.86-.12-1.13-.37s-.41-.59-.41-1.02Z"/><path class="cls-6" d="m361.39,17.47c0-.07,0-.17.02-.29.01-.12.04-.26.08-.42l.55-2.58h-1.06l.26-1.24h.22c.34,0,.6-.08.79-.25s.31-.4.38-.7l.18-.84h1.26l-.4,1.79h1.16l-.26,1.24h-1.15l-.58,2.72c-.02.1-.04.18-.04.26,0,.14.04.25.14.35.09.1.26.14.5.14.13,0,.26-.01.41-.04l-.23,1.12c-.06.02-.14.05-.26.08-.12.03-.26.04-.44.04-.48,0-.86-.12-1.13-.37s-.41-.59-.41-1.02Z"/><path class="cls-6" d="m364.99,18.79l1.25-5.84h1.38l-1.25,5.84h-1.38Zm1.45-7.84c0-.14.03-.26.08-.38.06-.12.13-.22.22-.31s.2-.16.32-.21c.12-.05.24-.08.37-.08.24,0,.44.08.59.23s.23.34.23.56c0,.14-.03.28-.08.4-.06.12-.13.23-.22.32-.09.09-.2.16-.32.21-.12.05-.24.07-.37.07-.24,0-.44-.08-.59-.23-.15-.16-.23-.35-.23-.57Z"/><path class="cls-6" d="m368.87,18.79c0,.22.04.4.11.56.07.16.17.29.29.39.12.1.26.18.42.23.16.05.32.08.49.08.52,0,.93-.16,1.23-.47.3-.31.51-.75.64-1.31l.1-.43c-.12.17-.3.32-.55.44s-.55.19-.9.19c-.38,0-.71-.06-1-.19-.29-.12-.54-.3-.74-.52-.2-.22-.36-.48-.47-.77-.11-.3-.16-.62-.16-.96,0-.45.07-.87.22-1.26.15-.39.35-.73.61-1.02.26-.29.57-.52.94-.68.36-.17.76-.25,1.19-.25s.81.08,1.11.24.52.36.65.6l.14-.72h1.38l-1.1,5.32c-.08.38-.2.76-.36,1.12s-.37.68-.64.95-.58.5-.96.67-.82.25-1.33.25c-.43,0-.81-.06-1.13-.19-.32-.13-.59-.29-.8-.5-.21-.2-.37-.44-.47-.7-.1-.26-.16-.53-.16-.79l1.26-.28Zm3.78-3.48c0-.16-.03-.32-.08-.47-.05-.15-.13-.29-.24-.41-.11-.12-.24-.22-.4-.29-.16-.07-.34-.11-.56-.11-.24,0-.46.04-.66.13s-.38.21-.53.38-.27.36-.35.6c-.08.24-.13.5-.13.8,0,.4.11.73.32.99.22.26.54.39.97.39.24,0,.46-.05.66-.14.2-.09.37-.23.52-.4s.26-.39.34-.64.13-.53.13-.84Z"/><path class="cls-6" d="m378.79,18.79l.74-3.46c.02-.06.03-.13.04-.19,0-.06.01-.12.01-.18,0-.3-.08-.53-.25-.7s-.41-.25-.73-.25c-.2,0-.38.04-.53.11-.16.08-.29.18-.41.31-.12.13-.21.28-.29.44s-.13.34-.17.52l-.73,3.4h-1.38l1.02-4.84c.06-.28.1-.51.11-.7.01-.18.02-.29.02-.31h1.34s0,.12-.01.25c0,.13-.02.25-.05.36.21-.28.47-.48.77-.6.31-.12.63-.18.96-.18.55,0,.98.17,1.29.5.31.34.47.77.47,1.31,0,.1,0,.2-.02.32-.01.12-.03.23-.05.33l-.77,3.55h-1.38Z"/><path class="cls-6" d="m381.88,18.79l1.25-5.84h1.38l-1.25,5.84h-1.38Zm1.45-7.84c0-.14.03-.26.08-.38.06-.12.13-.22.22-.31.09-.09.2-.16.32-.21.12-.05.24-.08.37-.08.24,0,.44.08.59.23s.23.34.23.56c0,.14-.03.28-.08.4-.06.12-.13.23-.22.32-.09.09-.2.16-.32.21-.12.05-.24.07-.37.07-.24,0-.44-.08-.59-.23-.15-.16-.23-.35-.23-.57Z"/><path class="cls-6" d="m386.54,16.24s-.01.08-.01.13c0,.42.13.75.38,1.01.26.26.59.39,1,.39.38,0,.7-.09.95-.26s.43-.37.54-.59l1.07.59c-.1.19-.23.38-.39.55-.16.18-.35.33-.57.46-.22.13-.46.24-.74.32-.28.08-.57.12-.89.12-.36,0-.7-.06-1.03-.18s-.61-.29-.85-.52c-.24-.23-.44-.51-.58-.84-.14-.33-.22-.71-.22-1.13,0-.55.09-1.05.27-1.48.18-.44.42-.81.71-1.11s.63-.54,1.01-.7.77-.24,1.17-.24.76.06,1.07.18.57.29.79.5.37.47.49.76c.11.3.17.62.17.97,0,.2-.02.39-.05.58-.04.19-.07.35-.11.49h-4.16Zm2.96-1.02s0-.04,0-.08c0-.04,0-.07,0-.1,0-.13-.02-.26-.06-.39-.04-.13-.11-.25-.2-.36-.09-.11-.21-.2-.37-.26s-.34-.1-.56-.1-.41.04-.59.11c-.18.07-.34.17-.47.29-.14.12-.25.26-.35.41-.1.16-.17.32-.22.49h2.81Z"/><path class="cls-6" d="m392.55,16.75c0,.3.09.57.26.79.18.22.44.34.8.34.28,0,.49-.07.62-.21s.2-.29.2-.46c0-.12-.04-.23-.11-.34-.08-.11-.2-.2-.38-.28l-.74-.32c-.4-.18-.69-.4-.88-.66-.18-.26-.28-.57-.28-.91,0-.25.05-.49.16-.72.1-.23.25-.44.44-.62.19-.18.42-.32.68-.43.27-.1.57-.16.91-.16.42,0,.76.06,1.03.18.27.12.48.27.65.45.16.18.28.37.35.57.07.2.11.38.11.54l-1.21.25c0-.09-.03-.19-.06-.29-.03-.11-.09-.21-.16-.3s-.18-.17-.3-.23c-.12-.06-.28-.09-.47-.09-.25,0-.44.06-.58.19-.14.13-.21.28-.21.47,0,.14.04.26.11.35s.17.17.3.22l.77.34c.43.18.75.42.96.71.2.29.31.61.31.96,0,.21-.04.42-.13.65-.09.22-.22.43-.4.61-.18.18-.41.33-.68.45-.28.12-.61.17-.99.17-.46,0-.83-.07-1.12-.22-.29-.14-.52-.32-.69-.52s-.28-.42-.35-.65c-.06-.23-.1-.43-.1-.61l1.2-.23Z"/><path class="cls-6" d="m396.87,18.03c0-.3.1-.55.31-.74.21-.19.46-.29.77-.29s.55.1.74.29c.19.2.28.46.28.8,0,.35-.07.69-.2,1-.13.32-.31.59-.54.83-.23.24-.5.43-.82.58-.32.15-.65.23-1.01.26l.16-.73c.15-.02.31-.07.46-.14.16-.07.3-.16.43-.27s.24-.23.34-.37.16-.29.19-.45c-.06.03-.16.05-.28.05-.24,0-.44-.08-.59-.23s-.23-.35-.23-.59Z"/><path class="cls-6" d="m347.26,31.79l1.8-8.51h1.44l-1.51,7.14h3.79l-.29,1.37h-5.23Z"/><path class="cls-6" d="m359.27,28.46c0,.48-.08.93-.24,1.36s-.38.8-.67,1.12c-.29.32-.63.57-1.03.75-.4.18-.83.28-1.29.28-.41,0-.78-.07-1.1-.21-.33-.14-.61-.33-.83-.58-.23-.25-.4-.54-.53-.86-.12-.33-.19-.68-.19-1.06,0-.51.08-.98.25-1.41.17-.43.4-.8.69-1.1s.64-.55,1.03-.72c.4-.17.82-.26,1.27-.26.42,0,.79.07,1.12.21.33.14.61.33.83.58s.4.53.52.86c.12.33.17.68.17,1.06Zm-2.74-1.45c-.23,0-.45.05-.67.16-.21.1-.4.25-.56.44-.16.19-.29.42-.38.69-.1.27-.14.57-.14.91,0,.46.12.83.37,1.1.24.27.57.41.96.41.22,0,.43-.05.64-.14s.4-.23.56-.42c.17-.19.3-.42.4-.7.1-.28.15-.59.15-.95,0-.46-.12-.83-.35-1.09-.24-.26-.56-.4-.98-.41Z"/><path class="cls-6" d="m362.42,25.94l-.72,3.36c-.04.18-.06.34-.06.47,0,.28.07.51.22.68.15.18.39.26.74.26.18,0,.35-.04.5-.11.15-.07.29-.17.4-.3s.21-.27.28-.44c.08-.16.13-.34.17-.52l.72-3.41h1.37l-.94,4.51c-.04.18-.07.36-.1.53-.02.17-.04.35-.04.53v.11s0,.09.01.15h-1.34s-.01-.09-.02-.14c0-.06,0-.12,0-.2v-.13s0-.1.01-.16c-.17.26-.39.45-.67.58s-.56.19-.83.19c-.62,0-1.09-.18-1.42-.53-.33-.36-.49-.81-.49-1.37,0-.2.02-.42.07-.65l.73-3.42h1.39Z"/><path class="cls-6" d="m369.39,31.79h-1.37l-1.03-5.84h1.43l.58,4.18,2.27-4.18h1.55l-3.42,5.84Z"/><path class="cls-6" d="m378.94,25.94l-.95,4.45c-.04.18-.07.37-.09.55-.02.18-.03.37-.03.56v.12s0,.1.01.17h-1.3c0-.06-.01-.1-.01-.13v-.3c0-.06,0-.15.02-.29-.17.22-.39.41-.65.58-.27.17-.59.25-.95.25s-.71-.07-1-.2c-.29-.13-.53-.31-.73-.55-.2-.23-.35-.5-.45-.82-.1-.31-.16-.65-.16-1.02,0-.49.08-.95.23-1.37.15-.43.36-.8.63-1.12.27-.32.59-.57.96-.76.37-.18.77-.28,1.2-.28.26,0,.49.03.69.08.2.05.37.12.5.2.14.08.26.18.35.28.09.1.16.2.21.29l.16-.7h1.36Zm-3.16,1.07c-.28,0-.53.07-.74.2-.22.14-.4.31-.54.53s-.25.46-.33.73c-.08.27-.11.53-.11.8,0,.43.11.78.32,1.04s.52.39.93.39c.23,0,.45-.06.66-.17s.39-.27.55-.48.28-.45.37-.74c.09-.28.13-.6.13-.95,0-.4-.1-.73-.31-.98-.2-.25-.51-.38-.92-.38Z"/><path class="cls-6" d="m379.46,31.79l1.25-5.84h1.38l-1.25,5.84h-1.38Zm1.45-7.84c0-.14.03-.26.08-.38.06-.12.13-.22.22-.31.09-.09.2-.16.32-.21.12-.05.24-.08.37-.08.24,0,.44.08.59.23s.23.34.23.56c0,.14-.03.28-.08.4-.06.12-.13.23-.22.32-.09.09-.2.16-.32.21-.12.05-.24.07-.37.07-.24,0-.44-.08-.59-.23-.15-.16-.23-.35-.23-.57Z"/><path class="cls-6" d="m386.41,31.79l.74-3.46c.02-.06.03-.13.04-.19,0-.06.01-.12.01-.18,0-.3-.08-.53-.25-.7s-.41-.25-.73-.25c-.2,0-.38.04-.53.11s-.29.18-.41.31c-.12.13-.21.28-.29.44-.08.17-.13.34-.17.52l-.73,3.4h-1.38l1.02-4.84c.06-.28.1-.51.11-.7.01-.18.02-.29.02-.31h1.34s0,.12-.01.25-.02.25-.05.36c.21-.28.47-.48.77-.6.31-.12.62-.18.95-.18.55,0,.98.17,1.3.5.31.34.47.77.47,1.31,0,.1,0,.2-.02.32s-.03.23-.05.33l-.77,3.55h-1.38Z"/><path class="cls-6" d="m389.68,28.89l.26-1.24h3.37l-.25,1.24h-3.38Z"/><path class="cls-6" d="m393.73,31.79l1.85-8.69h1.38l-1.85,8.69h-1.38Z"/><path class="cls-6" d="m403.29,25.94l-.95,4.45c-.04.18-.07.37-.09.55-.02.18-.03.37-.03.56v.12s0,.1.01.17h-1.3c0-.06-.01-.1-.01-.13v-.3c0-.06,0-.15.02-.29-.17.22-.39.41-.65.58-.27.17-.59.25-.95.25s-.71-.07-1-.2c-.29-.13-.53-.31-.73-.55-.2-.23-.35-.5-.45-.82-.1-.31-.16-.65-.16-1.02,0-.49.08-.95.23-1.37.15-.43.36-.8.63-1.12.27-.32.59-.57.96-.76.37-.18.77-.28,1.2-.28.26,0,.49.03.69.08.2.05.37.12.5.2.14.08.26.18.35.28.09.1.16.2.21.29l.16-.7h1.36Zm-3.16,1.07c-.28,0-.53.07-.74.2-.22.14-.4.31-.54.53s-.25.46-.33.73c-.08.27-.11.53-.11.8,0,.43.11.78.32,1.04s.52.39.93.39c.23,0,.45-.06.66-.17s.39-.27.55-.48.28-.45.37-.74c.09-.28.13-.6.13-.95,0-.4-.1-.73-.31-.98-.2-.25-.51-.38-.92-.38Z"/><path class="cls-6" d="m403.99,28.89l.26-1.24h3.37l-.25,1.24h-3.38Z"/><path class="cls-6" d="m413.68,31.79l-2.62-6.41-1.36,6.41h-1.44l1.8-8.51h1.68l2.46,6.11,1.3-6.11h1.45l-1.81,8.51h-1.46Z"/><path class="cls-6" d="m418.49,29.24s-.01.08-.01.13c0,.42.13.75.38,1.01.26.26.59.39,1,.39.38,0,.7-.09.95-.26s.43-.37.54-.59l1.07.59c-.1.19-.23.38-.39.55s-.35.33-.57.46c-.22.13-.46.24-.74.32-.28.08-.57.12-.89.12-.36,0-.7-.06-1.03-.18s-.61-.29-.85-.52c-.24-.23-.44-.51-.58-.84s-.22-.71-.22-1.13c0-.55.09-1.05.27-1.48.18-.44.42-.81.71-1.11.3-.3.63-.54,1.01-.7s.77-.24,1.17-.24.76.06,1.07.18c.31.12.57.29.79.5.21.21.37.47.49.76s.17.62.17.97c0,.2-.02.39-.05.58-.04.19-.07.35-.11.49h-4.16Zm2.96-1.02s0-.04,0-.08c0-.04,0-.07,0-.1,0-.13-.02-.26-.06-.39s-.11-.25-.2-.36c-.09-.11-.21-.2-.37-.26-.15-.07-.34-.1-.56-.1s-.41.04-.59.11-.34.17-.47.29c-.14.12-.25.26-.35.41s-.17.32-.22.49h2.81Z"/><path class="cls-6" d="m425.91,25.94l-.72,3.36c-.04.18-.06.34-.06.47,0,.28.07.51.22.68s.39.26.74.26c.18,0,.35-.04.5-.11.15-.07.28-.17.4-.3s.21-.27.28-.44.13-.34.17-.52l.72-3.41h1.37l-.94,4.51c-.04.18-.07.36-.1.53-.02.17-.04.35-.04.53v.11s0,.09.01.15h-1.34s-.01-.09-.02-.14c0-.06,0-.12,0-.2v-.13s0-.1.01-.16c-.17.26-.39.45-.67.58-.28.13-.56.19-.83.19-.62,0-1.09-.18-1.42-.53-.33-.36-.49-.81-.49-1.37,0-.2.02-.42.07-.65l.73-3.42h1.39Z"/><path class="cls-6" d="m432.88,31.79h-1.37l-1.03-5.84h1.43l.58,4.18,2.27-4.18h1.55l-3.42,5.84Z"/><path class="cls-6" d="m437.47,29.24s-.01.08-.01.13c0,.42.13.75.38,1.01.26.26.59.39,1,.39.38,0,.7-.09.95-.26s.43-.37.54-.59l1.07.59c-.1.19-.23.38-.39.55-.16.18-.35.33-.57.46-.22.13-.46.24-.74.32-.28.08-.57.12-.89.12-.36,0-.7-.06-1.03-.18s-.61-.29-.85-.52c-.24-.23-.44-.51-.58-.84-.14-.33-.22-.71-.22-1.13,0-.55.09-1.05.27-1.48.18-.44.42-.81.71-1.11s.63-.54,1.01-.7.77-.24,1.17-.24.76.06,1.07.18.57.29.79.5.37.47.49.76c.11.3.17.62.17.97,0,.2-.02.39-.05.58-.04.19-.07.35-.11.49h-4.16Zm2.96-1.02s0-.04,0-.08c0-.04,0-.07,0-.1,0-.13-.02-.26-.06-.39-.04-.13-.11-.25-.2-.36-.09-.11-.21-.2-.37-.26s-.34-.1-.56-.1-.41.04-.59.11c-.18.07-.34.17-.47.29-.14.12-.25.26-.35.41-.1.16-.17.32-.22.49h2.81Z"/><path class="cls-6" d="m442.48,31.03c0-.3.1-.55.31-.74s.46-.29.77-.29.55.1.74.29c.19.2.28.46.28.8,0,.35-.07.69-.2,1-.13.32-.31.59-.54.83-.23.24-.5.43-.82.58-.32.15-.65.23-1.01.26l.16-.73c.15-.02.31-.07.46-.14.16-.07.3-.16.43-.27.13-.11.24-.23.34-.37.1-.14.16-.29.19-.45-.06.03-.16.05-.28.05-.24,0-.44-.08-.59-.23s-.23-.35-.23-.59Z"/><path class="cls-6" d="m354.58,36.28l.71,6.26,2.83-6.26h1.5l-4,8.51h-1.43l-.71-6.43-3.2,6.43h-1.5l-.6-8.51h1.42l.4,6.22,3.1-6.22h1.49Z"/><path class="cls-6" d="m364.9,38.94l-.95,4.45c-.04.18-.07.37-.09.55-.02.18-.03.37-.03.56v.12s0,.1.01.17h-1.29c0-.06-.01-.1-.01-.13v-.3c0-.06,0-.15.02-.29-.17.22-.39.41-.65.58s-.59.25-.95.25-.71-.07-1-.2c-.29-.13-.53-.31-.73-.55-.2-.23-.35-.5-.45-.82-.1-.31-.16-.65-.16-1.02,0-.49.08-.95.23-1.37.15-.43.36-.8.63-1.12s.59-.57.95-.76c.37-.18.77-.28,1.2-.28.26,0,.49.03.69.08.2.05.36.12.5.2.14.08.26.18.35.28.09.1.16.2.21.29l.16-.7h1.36Zm-3.16,1.07c-.28,0-.53.07-.74.2-.22.14-.4.31-.54.53-.14.22-.25.46-.33.73-.08.27-.12.53-.12.8,0,.43.11.78.32,1.04.21.26.52.39.93.39.23,0,.45-.06.66-.17.21-.11.39-.27.55-.48s.28-.45.37-.74.13-.6.13-.95c0-.4-.1-.73-.31-.98-.2-.25-.51-.38-.92-.38Z"/><path class="cls-6" d="m368.21,44.79h-1.37l-1.03-5.84h1.43l.58,4.18,2.27-4.18h1.55l-3.42,5.84Z"/><path class="cls-6" d="m372.8,42.24s-.01.08-.01.13c0,.42.13.75.38,1.01.26.26.59.39,1,.39.38,0,.7-.09.95-.26s.43-.37.54-.59l1.07.59c-.1.19-.23.38-.39.55s-.35.33-.57.46c-.21.13-.46.24-.74.32-.28.08-.57.12-.89.12-.36,0-.7-.06-1.03-.18-.32-.12-.61-.29-.85-.52-.24-.23-.44-.51-.58-.84-.14-.33-.21-.71-.21-1.13,0-.55.09-1.05.27-1.48.18-.44.42-.81.71-1.11s.63-.54,1.01-.7c.38-.16.77-.24,1.17-.24s.76.06,1.07.18.57.29.79.5c.21.21.37.47.49.76.11.3.17.62.17.97,0,.2-.02.39-.05.58-.04.19-.07.35-.11.49h-4.16Zm2.96-1.02s0-.04,0-.08c0-.04,0-.07,0-.1,0-.13-.02-.26-.06-.39-.04-.13-.11-.25-.2-.36-.09-.11-.21-.2-.37-.26s-.34-.1-.56-.1-.41.04-.59.11-.34.17-.47.29-.25.26-.35.41c-.1.16-.17.32-.21.49h2.81Z"/><path class="cls-6" d="m382.09,40.36c-.18-.04-.35-.06-.49-.06-.21,0-.41.03-.59.09-.19.06-.36.16-.53.29-.16.14-.31.32-.43.54-.12.22-.22.5-.29.83l-.59,2.74h-1.37l1.02-4.84c.06-.28.1-.51.11-.7.01-.18.02-.29.02-.31h1.34s0,.09,0,.16c0,.07,0,.14-.01.22s-.01.15-.02.23c-.01.08-.03.14-.04.2.11-.17.24-.31.38-.42s.29-.2.45-.26c.16-.06.31-.11.47-.14.16-.03.31-.04.46-.04.16,0,.3.01.42.04l-.3,1.44Z"/><path class="cls-6" d="m385.54,44.03c0-.3.1-.55.31-.74.21-.19.46-.29.77-.29s.55.1.74.29c.19.2.28.46.28.8,0,.35-.07.69-.2,1-.13.32-.31.59-.54.83-.23.24-.5.43-.82.58-.32.15-.65.23-1.01.26l.16-.73c.15-.02.31-.07.46-.14.16-.07.3-.16.43-.27s.24-.23.34-.37.16-.29.19-.45c-.06.03-.16.05-.28.05-.24,0-.44-.08-.59-.23-.16-.15-.23-.35-.23-.59Z"/><path class="cls-6" d="m392.18,44.79l1.8-8.51h1.44l-1.51,7.14h3.79l-.29,1.37h-5.23Z"/><path class="cls-6" d="m399.65,42.24s-.01.08-.01.13c0,.42.13.75.38,1.01.26.26.59.39,1,.39.38,0,.7-.09.95-.26s.43-.37.54-.59l1.07.59c-.1.19-.23.38-.39.55s-.35.33-.57.46c-.21.13-.46.24-.74.32-.28.08-.57.12-.89.12-.36,0-.7-.06-1.03-.18-.32-.12-.61-.29-.85-.52-.24-.23-.44-.51-.58-.84-.14-.33-.21-.71-.21-1.13,0-.55.09-1.05.27-1.48.18-.44.42-.81.71-1.11s.63-.54,1.01-.7c.38-.16.77-.24,1.17-.24s.76.06,1.07.18.57.29.79.5c.21.21.37.47.49.76.11.3.17.62.17.97,0,.2-.02.39-.05.58-.04.19-.07.35-.11.49h-4.16Zm2.96-1.02s0-.04,0-.08c0-.04,0-.07,0-.1,0-.13-.02-.26-.06-.39-.04-.13-.11-.25-.2-.36-.09-.11-.21-.2-.37-.26s-.34-.1-.56-.1-.41.04-.59.11-.34.17-.47.29-.25.26-.35.41c-.1.16-.17.32-.21.49h2.81Z"/><path class="cls-6" d="m407.07,38.94l-.72,3.36c-.04.18-.06.34-.06.47,0,.28.07.51.22.68s.39.26.74.26c.18,0,.35-.04.5-.11.15-.07.28-.17.4-.3s.21-.27.28-.44.13-.34.17-.52l.72-3.41h1.37l-.94,4.51c-.04.18-.07.36-.1.53-.02.17-.04.35-.04.53v.11s0,.09.01.15h-1.34s-.01-.09-.02-.14c0-.06,0-.12,0-.2v-.13s0-.1.01-.16c-.17.26-.39.45-.67.58-.28.13-.56.19-.83.19-.62,0-1.09-.18-1.42-.53-.33-.36-.49-.81-.49-1.37,0-.2.02-.42.07-.65l.73-3.42h1.39Z"/><path class="cls-6" d="m414.04,44.79h-1.37l-1.03-5.84h1.43l.58,4.18,2.27-4.18h1.55l-3.42,5.84Z"/><path class="cls-6" d="m418.63,42.24s-.01.08-.01.13c0,.42.13.75.38,1.01.26.26.59.39,1,.39.38,0,.7-.09.95-.26s.43-.37.54-.59l1.07.59c-.1.19-.23.38-.39.55-.16.18-.35.33-.57.46-.22.13-.46.24-.74.32-.28.08-.57.12-.89.12-.36,0-.7-.06-1.03-.18s-.61-.29-.85-.52c-.24-.23-.44-.51-.58-.84-.14-.33-.22-.71-.22-1.13,0-.55.09-1.05.27-1.48.18-.44.42-.81.71-1.11s.63-.54,1.01-.7.77-.24,1.17-.24.76.06,1.07.18.57.29.79.5.37.47.49.76c.11.3.17.62.17.97,0,.2-.02.39-.05.58-.04.19-.07.35-.11.49h-4.16Zm2.96-1.02s0-.04,0-.08c0-.04,0-.07,0-.1,0-.13-.02-.26-.06-.39-.04-.13-.11-.25-.2-.36-.09-.11-.21-.2-.37-.26s-.34-.1-.56-.1-.41.04-.59.11c-.18.07-.34.17-.47.29-.14.12-.25.26-.35.41-.1.16-.17.32-.22.49h2.81Z"/><path class="cls-6" d="m427.33,44.79l.74-3.46c.02-.06.03-.13.04-.19,0-.06.01-.12.01-.18,0-.3-.08-.53-.25-.7s-.41-.25-.73-.25c-.2,0-.38.04-.53.11s-.29.18-.41.31c-.12.13-.21.28-.29.44-.08.17-.13.34-.17.52l-.73,3.4h-1.38l1.02-4.84c.06-.28.1-.51.11-.7.01-.18.02-.29.02-.31h1.34s0,.12-.01.25-.02.25-.05.36c.21-.28.47-.48.77-.6.31-.12.62-.18.95-.18.55,0,.98.17,1.3.5.31.34.47.77.47,1.31,0,.1,0,.2-.02.32s-.03.23-.05.33l-.77,3.55h-1.38Z"/><path class="cls-6" d="m140.92,6.99c-5,0-9,2.6-9,5.9s4,5.9,9,5.9,9-2.6,9-5.9-4.1-5.9-9-5.9Zm0,11.1c-4.1,0-7.5-2.4-7.5-5.3s3.4-5.3,7.5-5.3,7.5,2.4,7.5,5.3c-.1,3-3.4,5.3-7.5,5.3Z"/><path class="cls-6" d="m143.72,12.69q-.2-.1,0-.2c.5-.3.8-.9.8-1.5,0-1.1-1.5-2.2-3.8-2.2-1.4,0-2.7.4-3.8,1.2q-.2.2-.1.3l.3.4c.1.1.2.1.2,0,.2-.2.3-.1.3.1v3.9c0,.2,0,.3-.3.1-.1,0-.1-.1-.2,0l-.4.4c-.1.1-.1.2.1.3,1.1.8,2.5,1.2,3.9,1.3,2.6,0,4.3-1.1,4.3-2.6.1-.6-.5-1.3-1.3-1.5Zm-3.9-2.5c0-.2.2-.4.5-.4h.6c.7,0,1.2.5,1.3,1.2h0c0,.7-.6,1.2-1.2,1.2h-.9c-.1,0-.2-.1-.2-.2l-.1-1.8Zm1.4,5.8h-1c-.3,0-.5-.1-.5-.4v-2.2c0-.1.1-.2.2-.2h1.3c.8,0,1.5.6,1.5,1.4s-.6,1.4-1.5,1.4c.1,0,0,0,0,0h0Z"/><path class="cls-6" d="m309.18,13.29c-5,0-9,2.6-9,5.9s4,5.9,9,5.9,9-2.6,9-5.9-4.1-5.9-9-5.9Zm0,11.1c-4.1,0-7.5-2.4-7.5-5.3s3.4-5.3,7.5-5.3,7.5,2.4,7.5,5.3c-.1,3-3.4,5.3-7.5,5.3Z"/><path class="cls-6" d="m311.98,18.99q-.2-.1,0-.2c.5-.3.8-.9.8-1.5,0-1.1-1.5-2.2-3.8-2.2-1.4,0-2.7.4-3.8,1.2q-.2.2-.1.3l.3.4c.1.1.2.1.2,0,.2-.2.3-.1.3.1v3.9c0,.2,0,.3-.3.1-.1,0-.1-.1-.2,0l-.4.4c-.1.1-.1.2.1.3,1.1.8,2.5,1.2,3.9,1.3,2.6,0,4.3-1.1,4.3-2.6.1-.6-.5-1.3-1.3-1.5Zm-3.9-2.5c0-.2.2-.4.5-.4h.6c.7,0,1.2.5,1.3,1.2h0c0,.7-.6,1.2-1.2,1.2h-.9c-.1,0-.2-.1-.2-.2l-.1-1.8Zm1.4,5.8h-1c-.3,0-.5-.1-.5-.4v-2.2c0-.1.1-.2.2-.2h1.3c.8,0,1.5.6,1.5,1.4s-.6,1.4-1.5,1.4c.1,0,0,0,0,0h0Z"/><path class="cls-6" d="m469.69,152.96c-5,0-9,2.6-9,5.9s4,5.9,9,5.9,9-2.6,9-5.9-4.1-5.9-9-5.9Zm0,11.1c-4.1,0-7.5-2.4-7.5-5.3s3.4-5.3,7.5-5.3,7.5,2.4,7.5,5.3c-.1,3-3.4,5.3-7.5,5.3Z"/><path class="cls-6" d="m472.49,158.66q-.2-.1,0-.2c.5-.3.8-.9.8-1.5,0-1.1-1.5-2.2-3.8-2.2-1.4,0-2.7.4-3.8,1.2q-.2.2-.1.3l.3.4c.1.1.2.1.2,0,.2-.2.3-.1.3.1v3.9c0,.2,0,.3-.3.1-.1,0-.1-.1-.2,0l-.4.4c-.1.1-.1.2.1.3,1.1.8,2.5,1.2,3.9,1.3,2.6,0,4.3-1.1,4.3-2.6.1-.6-.5-1.3-1.3-1.5Zm-3.9-2.5c0-.2.2-.4.5-.4h.6c.7,0,1.2.5,1.3,1.2h0c0,.7-.6,1.2-1.2,1.2h-.9c-.1,0-.2-.1-.2-.2l-.1-1.8Zm1.4,5.8h-1c-.3,0-.5-.1-.5-.4v-2.2c0-.1.1-.2.2-.2h1.3c.8,0,1.5.6,1.5,1.4s-.6,1.4-1.5,1.4c.1,0,0,0,0,0h0Z"/><path class="cls-6" d="m31.84,175.82c-5,0-9,2.6-9,5.9s4,5.9,9,5.9,9-2.6,9-5.9-4.1-5.9-9-5.9Zm0,11.1c-4.1,0-7.5-2.4-7.5-5.3s3.4-5.3,7.5-5.3,7.5,2.4,7.5,5.3c-.1,3-3.4,5.3-7.5,5.3Z"/><path class="cls-6" d="m34.64,181.52q-.2-.1,0-.2c.5-.3.8-.9.8-1.5,0-1.1-1.5-2.2-3.8-2.2-1.4,0-2.7.4-3.8,1.2q-.2.2-.1.3l.3.4c.1.1.2.1.2,0,.2-.2.3-.1.3.1v3.9c0,.2,0,.3-.3.1-.1,0-.1-.1-.2,0l-.4.4c-.1.1-.1.2.1.3,1.1.8,2.5,1.2,3.9,1.3,2.6,0,4.3-1.1,4.3-2.6.1-.6-.5-1.3-1.3-1.5Zm-3.9-2.5c0-.2.2-.4.5-.4h.6c.7,0,1.2.5,1.3,1.2h0c0,.7-.6,1.2-1.2,1.2h-.9c-.1,0-.2-.1-.2-.2l-.1-1.8Zm1.4,5.8h-1c-.3,0-.5-.1-.5-.4v-2.2c0-.1.1-.2.2-.2h1.3c.8,0,1.5.6,1.5,1.4s-.6,1.4-1.5,1.4c.1,0,0,0,0,0h0Z"/><path class="cls-6" d="m209.23,220.36c-46.45,4.2-73.11-3.49-103.97-12.4-26.87-7.75-56.74-16.36-105.25-19v3.01c48.09,2.64,77.75,11.18,104.42,18.87,25.13,7.25,47.48,13.7,79.85,13.7,7.77,0,16.12-.37,25.23-1.19.83-.08,1.43-.8,1.36-1.63s-.8-1.44-1.63-1.36Z"/><path class="cls-6" d="m491.74,164.86c-24.83,6.17-51.73,14.39-79.39,22.84-66.2,20.22-134.65,41.13-176.6,32.79-.8-.17-1.6.37-1.76,1.18s.37,1.6,1.18,1.76c6.68,1.33,13.99,1.94,21.84,1.94,42.32,0,100.08-17.64,156.22-34.79,27.36-8.36,53.97-16.48,78.52-22.62v-3.09Z"/><path class="cls-6" d="m320.74,0l.99,38.62c.02.81.69,1.46,1.5,1.46.01,0,.03,0,.04,0,.83-.02,1.48-.71,1.46-1.54l-.99-38.54h-3Z"/><path class="cls-6" d="m126.41,0h-3.04l5.43,32.53c.12.73.76,1.25,1.48,1.25.08,0,.17,0,.25-.02.82-.14,1.37-.91,1.23-1.73L126.41,0Z"/></g></svg>